<svg version="1.2" xmlns="http://www.w3.org/2000/svg" viewBox="0 500 2480 2008" width="2480" height="2008">
	<title>Proyecto nuevo</title>
	<style>
		.s0 { fill: #f8f8f8 } 
		.s1 { fill: #060606 } 
	</style>
	<g id="WhatsApp Image 2025-03-31 at 11.29.16 PM">
		<path id="Path 0" class="s0" d="m0 1654.5v1654.5h2480v-3309h-2480z"/>
		<path id="Path 1" fill-rule="evenodd" class="s1" d="m1544 616.5c10.7 0.2 23.5 1.1 28.5 1.9 5 0.8 13.8 2.6 19.8 4 5.9 1.4 11.4 2.6 12.2 2.6 0.8 0 4.3 1.4 7.8 3.1 3.4 1.7 6.9 3.7 7.7 4.5 0.8 0.7 4 2.6 7 4.1 3.1 1.6 8.2 5.1 11.5 7.8 3.3 2.8 9.3 8.4 13.3 12.5 4.1 4.1 8.6 9.3 10.1 11.5 1.6 2.2 4.4 7.4 6.4 11.5 1.9 4.1 4.7 10.4 6.1 14 1.4 3.6 3.7 10.1 5.1 14.5 1.4 4.4 2.5 9.2 2.5 10.8 0 1.5 0.7 4.4 1.6 6.4 0.8 2.1 2.2 9.4 3 16.3 0.8 6.9 1.9 15.2 2.5 18.5 0.6 3.4 1 16.4 0.9 30.5-0.2 21.8 0 24.9 1.6 28 1.2 2.5 1.9 6.9 2.3 15 0.6 10.7 0.8 11.8 3.7 16 1.7 2.5 4.2 6.1 5.5 8.1 1.3 2 7 9.2 12.5 16 5.6 6.8 12.8 14.7 16 17.5 3.6 3.1 6.8 6.9 8.3 10 1.8 3.8 2.2 5.9 1.8 9.4-0.5 3.8-1.5 5.4-5.9 9.8-2.9 2.9-6.6 5.6-8.3 6.1-1.7 0.5-4.8 1.3-7 1.6-2.2 0.4-4.9 0.3-6-0.3-1.1-0.5-4.7-3.3-8-6.2-3.3-2.8-8.3-6.4-11-7.8-4.5-2.3-6-2.5-15.3-2.4-6.5 0.1-11.2 0.7-12.9 1.6-1.6 0.8-4.2 2.9-6 4.8-3.1 3.2-3.2 3.8-4.3 15.8-0.6 6.9-1.1 17.5-1.2 23.5-0.1 6 0.4 14.1 0.9 18 0.6 3.9 1.7 8.4 2.5 10 0.9 1.6 1.8 5 2.1 7.5 0.4 2.5 1.5 6.1 2.5 8 1.5 2.9 3.7 4.4 12.3 8.7 5.7 2.8 13.3 6.1 16.9 7.2 3.6 1.2 8.3 2.5 10.5 3 2.2 0.5 6.5 1.6 9.5 2.5 3 0.8 7.5 2.4 10 3.4 2.5 1.1 8.8 2.9 14 4 5.2 1.1 14 3 19.5 4.1 5.5 1.1 14 2.7 19 3.7 5 0.9 11.5 2.1 14.5 2.6 3 0.5 7.8 1.6 10.5 2.4 2.8 0.9 9.3 3 14.5 4.6 5.2 1.7 10.8 3.9 12.5 4.9 1.7 0.9 7.3 3.4 12.5 5.5 5.2 2 10.8 4.5 12.5 5.5 1.7 0.9 4.6 2 6.5 2.4 1.9 0.4 4.8 1.9 6.5 3.4 1.7 1.6 4.6 3.8 6.5 5.2 1.9 1.3 8 5.6 13.5 9.7 5.5 4 17.3 14.4 26.3 23 9 8.7 21.9 21.8 28.7 29.2 6.8 7.4 14.9 17.3 18.1 22 3.1 4.7 8.1 13.2 11.1 19 3 5.8 6 11.1 6.6 11.9 0.7 0.8 4 7.1 7.5 14 3.5 6.9 7.2 15.1 8.2 18.1 1 3 2.8 9.5 3.9 14.5 1.2 5 2.6 10.6 3.1 12.5 0.5 1.9 1.4 5.3 2 7.5 0.6 2.2 1.9 8.3 2.9 13.5 1.1 5.2 2.2 11.5 2.6 14 0.4 2.5 1.3 5.8 2 7.5 0.8 1.7 1.9 5 2.5 7.5 0.7 2.5 1.5 5 2 5.5 0.4 0.5 1.3 4.2 2 8 0.6 3.8 1.3 12.6 1.5 19.5 0.2 6.9 1 15.7 1.8 19.5 0.9 3.8 2.5 10.2 3.6 14 1 3.8 2.6 9.2 3.5 12 0.8 2.7 4.2 10.4 7.6 17 3.3 6.6 6.1 13.1 6.1 14.5-0.1 1.4 1.5 6.1 3.4 10.5 1.9 4.4 4.6 11.6 6 16 1.4 4.4 2.5 9.6 2.5 11.5 0 1.9 0.5 5.1 1.1 7 1 3 0.8 4.1-1 7.7-1.4 2.9-2.7 4.3-4.1 4.3-1.1 0-2.2 0.5-2.5 1-0.3 0.5-1.4 1-2.5 1-1.1 0-3.3 0.7-5 1.5-2.2 1.1-3.4 2.8-4.5 6.2-0.8 2.7-1.5 6.9-1.5 9.5 0 2.7 0.4 5.8 1 7 0.5 1.3 1.4 6.8 2 12.3 0.6 5.5 1.6 15.2 2.3 21.5 0.6 6.3 1.1 18 1.2 26 0 8-0.6 21.2-1.3 29.5-0.7 8.2-1.9 20-2.8 26-0.8 6-2.1 14.8-2.8 19.5-0.8 4.7-1.9 9.8-2.5 11.5-0.6 1.7-0.9 3.2-0.7 3.5 0.3 0.3-0.4 2.7-1.4 5.5-1.1 2.7-2.6 7.2-3.4 10-0.8 2.7-3 9.3-4.9 14.5-2 5.2-5.4 12.9-7.6 17-2.2 4.1-5.3 10-6.9 13-1.6 3-6.3 9.1-10.3 13.6-4.1 4.4-8.7 9-10.4 10.2-1.7 1.2-5 2.5-7.4 2.9-2.4 0.5-4.9 1.6-5.5 2.5-0.8 1.2-0.8 2.7 0.1 5.5 0.7 2.1 2.4 7.2 3.7 11.3 1.4 4.1 3.2 9.5 4.1 12 0.8 2.5 2.9 7.2 4.5 10.5 1.7 3.3 3.9 9.8 5 14.5 1.2 4.7 3.6 13.5 5.5 19.5 1.8 6 4.5 14.8 5.9 19.5 1.4 4.7 2.8 9.8 3.1 11.5 0.3 1.7 1 4.8 1.5 7 0.5 2.2 2.1 9 3.5 15 1.5 6 3.3 13 4 15.5 0.8 2.5 2.2 7.2 3.1 10.5 0.9 3.3 2.7 9.4 3.9 13.5 1.3 4.1 2.9 10.9 3.5 15 0.6 4.1 2.4 13.8 4 21.5 1.6 7.7 3.1 16 3.5 18.5 0.3 2.5 2.6 10.6 5 18 2.3 7.4 4.8 16.9 5.4 21 0.6 4.1 1.9 12 2.7 17.5 0.9 5.5 1.8 12 2.1 14.5 0.2 2.5 0.2 5.5-0.1 6.7-0.3 1.3-2.1 3.2-3.8 4.2-1.8 1.1-4 1.7-4.8 1.4-0.8-0.3-3.7 0.2-6.5 1.1-4.4 1.5-12.7 1.7-68.5 2.1-34.9 0.3-64.8 0.5-66.5 0.6-1.7 0-5 0-7.5-0.1-2.5-0.1-13 0.1-23.5 0.5-10.5 0.3-20.6 0.6-22.5 0.7-1.9 0-17.5-0.3-34.5-0.7-17-0.3-31.3-0.8-31.7-1.1-0.5-0.2-11 0.3-23.5 1.1-21.1 1.4-23.3 1.7-29.8 4.4-6.8 2.8-7.3 2.9-16 2-5-0.5-12.6-1.4-17-2.1-4.6-0.6-25.2-1.3-48.5-1.5-33.8-0.3-42.3-0.1-51.5 1.3-9 1.3-15.5 1.5-36 1-13.7-0.4-29-0.8-34-0.9-5-0.1-12.8-1-17.5-1.9-4.7-0.9-14.1-1.9-21-2.3-7.6-0.4-14.9-1.4-18.5-2.6-3.3-1-8.7-2.1-12-2.5-5.2-0.5-7.2-0.2-14.5 2.6-4.8 1.7-13.1 3.8-19 4.6-5.8 0.8-16.8 2.1-24.5 2.8-7.7 0.6-14.6 1.5-15.2 1.9-1 0.5-1.3 7.9-1.3 31.7 0 27.2 0.2 31.1 1.6 31.7 1.1 0.6 3-0.7 6.7-4.8 2.9-3.1 7.9-8.1 17.2-16.4h14.2c7.8 0 14.5 0.4 15 0.9 0.4 0.4-5.8 7.2-14 15-8.1 7.8-14.7 14.9-14.7 15.8 0 1 6.4 8.4 14.1 16.5 7.8 8.2 14.9 15.8 15.8 17.1 0.9 1.2 1.4 2.5 1.1 2.7-0.3 0.2-7.2 0.5-30.5 0.6l-12.2-12.8c-6.7-7-12.4-12.6-12.7-12.3-0.3 0.3-0.7 5.4-0.9 11.5-0.2 6.1-0.7 11.6-1 12.2-0.5 0.9-3.7 1.3-10.7 1.3-5.5 0-10.7-0.2-11.5-0.5-1.3-0.4-1.5-7.2-1.5-53.3 0.1-48-0.1-52.8-1.6-54.2-1.5-1.3-3.7-1.3-20.3 0.3-10.2 1.1-24 1.8-30.6 1.7-6.6-0.1-14.7-0.3-18-0.5-3.3-0.2-12.1-0.8-19.5-1.4-7.4-0.5-15.7-1.6-18.5-2.4-2.7-0.8-10-1.8-16-2.2-6-0.4-12.1-1.1-13.5-1.7-1.4-0.5-8.3-1.1-15.5-1.3-7.2-0.2-18.2-0.7-24.5-1-6.3-0.3-18.7-1.3-27.5-2.1-12.1-1.2-22.5-1.4-42.5-0.9-15.7 0.3-32 0.2-40-0.5-7.4-0.5-30.8-1-52-1-21.2-0.1-43-0.5-48.5-1.1-5.5-0.5-41.3-1.4-79.5-1.9-64.1-0.8-70.3-1.1-80-3-5.8-1.1-17-2.3-25-2.7-8-0.3-33.4-0.1-56.5 0.6-23.1 0.7-44.7 1.6-48 2.1-3.3 0.6-20.2 1.3-37.5 1.6-17.3 0.3-51.3 0.5-75.5 0.5-24.2-0.1-48.5-0.5-54-0.9-5.5-0.4-17.2-0.4-26 0-8.8 0.4-28.4 1-43.5 1.4-15.1 0.4-29.2 0.4-31.3 0-2.6-0.4-6.3-2.7-12.2-7.6-5.9-4.9-9.2-8.5-10.9-11.8-1.3-2.6-3.3-5.6-4.5-6.7-1.2-1.1-2.4-3.3-2.7-5-0.2-1.7-0.7-20.8-1.1-42.5-0.3-21.7-0.6-48.3-0.5-59 0.1-10.7 0.7-26.5 1.2-35 0.6-8.5 1.4-19.8 2-25 0.5-5.2 1.4-15.3 1.9-22.5 0.6-7.2 1.8-24.9 2.6-39.5 0.9-14.6 1.9-32.6 2.3-40 0.7-12.8 0.6-13.6-1.3-15.4q-2-1.9-4.5-1.3c-1.4 0.3-4.7 1.1-7.5 1.7-2.7 0.7-10.6 1.2-17.5 1.2-6.9 0-15.9-0.4-20-1-4.1-0.6-10.6-1.6-14.5-2.2-4-0.6-9.1-2.3-11.8-3.8-2.7-1.5-7.1-5.4-9.8-8.7-3.2-3.9-5.2-7.3-5.5-9.5-0.3-1.9-1-5.3-1.6-7.5-0.6-2.2-1.2-6.7-1.4-10-0.1-3.3-0.3-13.4-0.4-22.5-0.2-11.4 0.5-22.6 2-36 1.1-10.7 2.5-25.3 3-32.5 0.6-7.2 1.4-14.6 1.9-16.5 0.5-1.9 1.4-5.3 2-7.5 0.6-2.2 1-7.2 1-11-0.1-3.8 0.6-9.7 1.4-13 0.8-3.3 1.8-10.8 2.1-16.8 0.3-5.9 1.2-12.6 2-15 1-3 1.6-12.6 2.1-33.7 0.4-16.2 0.8-34.9 1-41.5 0.1-6.6 0.5-13.8 1.8-20l-4.9-1.8c-2.7-1-6.4-2.5-8.1-3.3-1.8-0.8-3.9-2.4-4.7-3.6-0.7-1.3-1.6-4.2-2-6.5-0.5-3.6 0-5.5 3.2-12.1 2.1-4.5 5.4-9.4 7.9-11.7 2.3-2.2 4.4-5.3 4.8-7 0.4-1.7 1.8-6.4 3.2-10.5 1.3-4.1 4-10.7 5.9-14.5 1.8-3.8 3.4-7.3 3.4-7.8 0-0.4 1.7-5.1 3.9-10.5 2.1-5.3 6-14.4 8.6-20.2 2.6-5.8 7-15.5 9.8-21.5 2.7-6 6.5-14.4 8.4-18.5 1.9-4.1 3.8-8.4 4.3-9.5 0.4-1.1 3.4-7.4 6.6-14 3.2-6.6 8.3-16 11.4-21 3.1-5 9.1-13.5 13.5-19 4.3-5.5 13.5-15.7 20.4-22.6 6.9-6.9 17.8-16.3 24.1-21 6.3-4.7 14.2-10.1 17.5-12.1 3.3-1.9 8.3-4.7 11-6.1 2.8-1.4 8.8-4.9 13.5-7.8 6.2-3.8 10-5.4 14-6 3-0.5 7.5-1.9 10-3.2 2.5-1.3 7-2.8 10-3.2 3-0.4 8.4-1.6 12-2.7 3.6-1.1 9.2-2.4 12.5-2.9 3.3-0.5 8.9-1.3 12.5-1.8 3.6-0.4 8.3-1.3 10.5-2 2.2-0.6 9.4-1.6 16-2.2 6.6-0.6 15.1-1.3 19-1.6 3.9-0.2 12-1.3 18-2.5 6-1.1 14.1-2.4 18-2.8 3.9-0.5 11.3-1.3 16.5-1.9 5.2-0.6 12-1.7 15-2.5 3-0.8 10.7-2.2 17-3.2 6.3-0.9 13.8-2.7 16.5-3.9 2.8-1.3 6.6-2.8 8.5-3.4 1.9-0.6 6.4-3.1 10-5.5 3.6-2.4 9.2-6 12.5-8.1 3.3-2.1 6.8-4.7 7.8-5.9 1-1.2 3.3-4.3 5.1-7.1 1.9-2.8 4.3-6.9 5.5-9.3 1.2-2.3 3-6 4.1-8.2 1.1-2.2 1.8-4.9 1.5-6-0.3-1.1-1-2-1.5-2-0.5 0-2.5 0.6-4.2 1.4-1.8 0.8-4.9 2-6.8 2.6-1.9 0.7-5.3 1.9-7.5 2.7-2.2 0.8-10.3 1.9-18 2.3-10.4 0.7-16.2 0.5-22.5-0.4-4.7-0.8-9.9-2-11.5-2.8-1.6-0.8-4.5-3.9-6.4-6.9-1.8-3-3.5-7-3.8-8.9-0.3-3 0.5-4.8 5.7-12 3.3-4.7 8.1-11.6 10.7-15.5 2.5-3.9 7.4-11.3 10.9-16.5 3.4-5.2 9-13.3 12.3-18 3.4-4.7 7.7-10.8 9.6-13.5 1.8-2.8 4.6-7.3 6.1-10 1.5-2.8 3.7-6.4 4.9-8 1.3-1.6 4.3-7 6.7-12 2.5-5 5.3-11.3 6.3-14 1-2.8 2.2-5.5 2.5-6 0.4-0.5 1.5-3.3 2.4-6 0.9-2.8 2.6-9 3.7-14 1.1-5 2.9-14 3.9-20 1.1-6 3.1-17.3 4.4-25 1.4-7.7 3.9-18.3 5.6-23.5 1.7-5.2 3-10.3 3-11.3 0-0.9 2.1-7 4.6-13.4 2.5-6.5 5.9-14 7.4-16.8 1.6-2.7 5.9-9 9.7-14 3.7-5 7.6-10.2 8.6-11.7 0.9-1.6 5.1-5.2 9.4-8 4.2-2.9 10.6-7.8 14.2-10.8 3.6-3 8.4-6.9 10.6-8.6 2.2-1.7 6.5-4.4 9.5-5.9 3-1.5 9.1-4.3 13.5-6.2 4.4-1.9 10.5-4 13.5-4.8 3-0.7 9.1-2.3 13.5-3.4 5.5-1.5 13.8-2.5 26.5-3.2 12.9-0.7 21.4-0.7 28 0 5.2 0.6 12.9 1.3 17 1.6 5.1 0.4 11.4 2 20 5 6.9 2.4 15.4 5.8 19 7.6 3.6 1.7 10.1 5.9 14.4 9.3 4.4 3.3 10.7 8.7 14 11.8 3.8 3.6 8.3 9.3 12 15.5 3.3 5.4 8 12.5 10.4 15.8 2.4 3.3 7.5 12.3 11.3 20 3.8 7.7 6.9 14.5 6.9 15 0 0.5 2.3 3.3 5.1 6 3.1 3 5.7 6.4 6.3 8.5 0.5 1.9 1.1 7.8 1.2 13 0.2 5.2 0.6 10.1 0.9 10.8 0.3 0.6 1.6 1.7 3 2.2 1.4 0.5 2.3 1.5 2 2-0.3 0.5-1.7 1-3.2 1-2.1-0.1-3.1 0.6-4 2.7-0.6 1.5-1.5 5.7-1.9 9.3-0.6 6-1 6.8-4.9 10.5-2.4 2.2-5.2 5.9-6.4 8.2-1.2 2.4-3.7 11.4-5.7 20.1-2 8.6-4 17.1-4.4 18.7-0.4 1.6-1.8 5.7-3 9-1.3 3.3-4.7 13-7.7 21.5-3 8.5-6 17.5-6.7 20-0.7 2.5-1.8 6.5-2.4 9-0.6 2.5-2.3 11-3.7 19-1.5 8-3.8 18.8-5.2 24-1.4 5.2-3.8 14.1-5.4 19.8-1.6 5.6-2.9 11-2.9 11.9 0 1-0.9 4.5-1.9 7.8-1 3.3-2.9 8-4.1 10.5-1.3 2.5-4.4 7.2-6.9 10.5-2.5 3.3-6.1 8.2-7.9 11-1.8 2.7-3.6 5.9-3.9 7-0.3 1.1-2.2 4.5-4.1 7.5-1.9 3-4.2 7.1-5 9-0.8 1.9-1.6 7.7-1.8 12.7-0.4 9.3-0.4 9.3 3.4 15.5 2 3.4 7.1 9.5 11.2 13.6 4.1 4 9.4 8.2 11.8 9.2 2.3 1.1 6.1 3.4 8.5 5 2.3 1.7 7.1 5 10.7 7.4 3.6 2.3 10.7 6.8 15.8 9.9 5 3.1 9.4 5.7 9.7 5.7 0.3 0 4.1 2.4 8.5 5.2 4.3 2.9 10 6.6 12.6 8.3 2.6 1.7 7.2 4.7 10.3 6.7 3.1 2.1 10.6 6.8 16.6 10.5 6 3.7 12.1 7.4 13.5 8.1 1.4 0.8 5.2 3 8.5 5 3.3 2 8.5 5.5 11.6 7.7 3.1 2.2 8 5.8 11 8.1 3 2.2 9.4 7.9 14.4 12.6 5 4.7 10.8 9.5 13 10.6 3.9 2 4.1 2 7 0.3 1.8-1.1 5.9-2 10.5-2.4 4.1-0.3 11.8-1 17-1.6 5.2-0.6 13.5-2 18.5-3.1 5-1.2 15.1-3.4 22.5-5 7.4-1.6 16.2-3.4 19.5-4 3.3-0.7 7.1-1.7 8.4-2.3 1.7-0.8 4.6-5.5 9.6-15.2 3.9-7.7 10.2-19.4 14-26 3.7-6.6 8.2-14.3 10-17 1.7-2.8 5.9-8.4 9.2-12.5 3.3-4.1 8.2-9.2 10.9-11.2 2.7-2.1 6.9-5.4 9.4-7.3 2.5-2 10.1-7.3 17-11.9 6.9-4.6 19.9-13.2 29-19.2 9.1-5.9 19.9-13.3 24-16.4 4.1-3.1 10.4-7.8 14-10.5 3.6-2.7 9-6.9 12-9.4 3-2.5 8.3-7.2 11.8-10.5 3.5-3.4 7-7.3 7.8-8.9 0.8-1.5 1.5-5.3 1.6-8.5 0-3.1-0.4-6.6-1-7.7-0.5-1.1-3.9-5.4-7.4-9.6-3.4-4.2-7.4-10.3-8.7-13.5-1.4-3.3-6.2-12.9-10.8-21.4-4.6-8.5-8.3-16.1-8.3-16.8 0-0.6-0.9-3.1-2.1-5.5-1.1-2.3-2.4-7.6-2.9-11.7-0.4-4.1-0.9-17.2-0.9-29-0.1-14.1-0.6-23.6-1.5-27.5-0.8-3.3-2.4-10.5-3.7-16-1.2-5.5-4.2-14.5-6.6-20-2.5-5.5-5.3-11.6-6.3-13.5-1-1.9-3.1-6.9-4.6-11-1.9-5.1-2.8-9.4-2.8-13.5 0-3.3 0.3-8.5 0.6-11.5 0.3-3 1.1-6.6 1.8-8 0.9-1.9 0.9-5.8 0.1-16-0.5-7.4-1.5-14.9-2.1-16.5-0.6-1.6-2.3-8.6-3.6-15.5-2.3-11.2-2.5-14-1.9-26.5 0.4-7.7 1.2-16 2-18.5 0.7-2.5 1.1-5.6 0.8-7-0.3-1.4 0.3-5 1.3-8 0.9-3 3.6-9.5 5.9-14.5 2.3-5 5.9-11.3 8-14 2.1-2.8 6.6-7.7 9.9-11.1 3.4-3.3 8.4-7.6 11.1-9.4 2.8-1.8 8.4-6 12.5-9.2 4.1-3.2 9.3-7.3 11.5-9.1 2.2-1.9 6.6-4.7 9.9-6.3 3.2-1.6 6-3.1 6.1-3.4 0.1-0.3 1.5-0.9 3.1-1.3 1.6-0.5 5.4-2.1 8.4-3.6 3-1.5 10.2-4.4 16-6.3 5.8-2 16.1-5.5 23-7.7 6.9-2.3 15.4-4.8 19-5.6 5-1.1 11-1.4 26-1zm-88.8 1431.1c1.6 0.2 3.9 1.2 5.3 2.2 1.3 0.9 3.2 3.3 4.1 5.2 1 1.9 1.7 5.1 1.6 7-0.1 1.9-1 4.6-2 6-1.1 1.4-3.3 3.3-5.1 4.3-2.3 1.2-4.2 1.5-7.3 1.1-3.1-0.5-5.3-1.7-7.5-4-2.9-3-3.3-4.1-3.3-8.6 0-4 0.6-6.1 2.5-8.5 1.3-1.8 3.9-3.7 5.7-4.2 1.8-0.6 4.5-0.8 6.1-0.5zm302.4 1.5c0.7 0 2.5 0.5 4.1 1.3 1.5 0.8 3.8 2.6 5.2 4.1 1.8 1.9 2.6 4.1 2.8 7.3 0.2 3.4-0.3 5.6-1.7 8-1.2 1.7-3.8 3.9-5.8 4.8-2.3 1-5.1 1.3-7 1-1.8-0.3-4.7-1.8-6.4-3.3-1.6-1.6-3.5-4.4-4.1-6.3-0.6-1.9-0.7-5-0.4-6.7 0.3-1.8 1.9-4.6 3.5-6.2 1.6-1.6 4.1-3.2 5.7-3.4 1.6-0.2 3.5-0.5 4.2-0.6zm-952.3 5.3c6.1 0.2 13.2 1.1 16 1.9 2.7 0.9 7.8 3.4 11.2 5.7 3.5 2.2 8.3 6.6 10.8 9.8 3.4 4.3 4.5 6.4 4.3 8.6-0.3 2.5-1 3.2-4.8 4.6-2.5 0.9-5.4 2-6.5 2.4-1.1 0.4-4.1 1.6-6.8 2.7-2.6 1-5.2 1.9-5.7 1.9-0.5 0-2-1.6-3.3-3.6-1.2-2-4-4.7-6.2-6-2.2-1.3-6.3-2.7-9-3q-5-0.7-10.5 0.9c-3 0.9-7.1 2.8-9 4.2-1.9 1.5-4.6 4.3-5.9 6.3-1.4 2-3.3 6.3-4.3 9.5-1 3.1-1.8 8.3-1.8 11.5 0 3.6 0.8 7.4 2.1 10.2 1.1 2.5 3.1 6 4.5 7.8 1.3 1.7 4.5 4.3 7.1 5.6 2.7 1.3 6.2 2.7 7.8 3 1.6 0.4 5.9 0.2 9.5-0.4 3.6-0.5 8-2 9.8-3.3 1.8-1.2 4.2-3.9 5.3-5.9 1-2.1 1.7-4.2 1.4-4.8-0.3-0.6-4.4-1-9.3-1-5.4 0-9.4-0.4-10.5-1.2-1.7-1.2-1.8-2.2-1-9.7 0.7-7.4 1.1-8.5 3-9.2 1.3-0.5 12.8-0.9 25.5-0.9 17.5 0 23.6 0.3 24.6 1.2 0.7 0.7 1.2 2.3 1.2 3.6 0 1.2-1 6.8-2.1 12.5-1.2 5.6-2.8 11.8-3.7 13.7-0.8 1.9-3.3 6-5.7 9-2.3 3-5.9 6.9-8.1 8.7-2.1 1.7-6.8 4.5-10.4 6.1-3.6 1.7-9.5 3.7-13.3 4.6-3.7 0.9-9.7 1.6-13.5 1.6-3.7 0-9.8-0.7-13.7-1.5-3.9-0.8-9.7-2.9-13-4.6-3.3-1.7-7.3-4.3-8.9-5.7-1.5-1.5-4.9-5.4-7.4-8.7-3.1-4-5.4-8.5-7-13.5-1.8-5.7-2.4-9.8-2.4-17 0-5.2 0.8-12.5 1.6-16.2 0.9-3.8 2.8-9.2 4.2-12 1.5-2.9 5.7-8.5 9.4-12.3 3.8-3.8 9.2-8.3 12.1-10 3-1.6 9-4 13.4-5.2 6.7-1.9 9.8-2.2 19-1.9zm342.2 0.6c10.1-0.1 12 0.2 13.5 1.7 0.9 1 5.3 11.7 9.8 23.8 4.5 12.1 8.6 22.6 9.1 23.3 0.5 0.6 1.4 1 1.9 0.7 0.5-0.3 2.8-5.1 4.9-10.7 2.2-5.7 5.1-12.8 6.4-15.8 1.3-3 3.7-8.8 5.3-12.9 1.6-4.1 3.5-8.1 4.2-8.8 0.9-0.9 4.7-1.3 12.5-1.3 7.9-0.1 11.6 0.3 12.4 1.2 0.7 0.7 1.9 4.9 2.8 9.3 0.8 4.4 1.9 12.3 2.5 17.5 0.6 5.2 1.9 14.9 3 21.5 1.1 6.6 2.7 16.9 3.4 23 0.8 6.1 2 14.7 2.8 19.3 1.1 7.3 1.1 8.4-0.2 9.2-0.8 0.5-6.2 1-12 1-7.4 0.1-10.9-0.3-11.7-1.2-0.6-0.7-2.1-8.3-3.3-16.8-1.2-8.5-2.6-19.6-3.1-24.5-0.6-4.9-1.4-9.4-2-10q-0.9-1-1.8 0c-0.4 0.6-2.3 4.6-4.1 9-1.7 4.4-4.9 12.3-7 17.5-2.1 5.2-4.8 11.5-6 14-1.1 2.5-2.8 6.1-3.8 8-1.5 3.1-2.2 3.5-6.2 3.8-2.9 0.2-4.9-0.1-5.6-1-0.6-0.7-5.8-12.9-11.5-27.1-5.7-14.1-10.8-25.4-11.2-25-0.4 0.5-1.2 3.5-1.6 6.8-0.5 3.3-1.6 10.3-2.4 15.5-0.9 5.2-2.1 13.6-2.7 18.5-0.6 4.9-1.6 9.8-2.1 10.8-0.8 1.5-2.5 1.7-12.9 1.7-8.7 0-12.1-0.3-12.5-1.2-0.3-0.7 0.1-5.4 0.9-10.3 0.8-4.9 3.1-18.4 5.1-30 2-11.6 4-23.5 4.4-26.5 0.5-3 1.9-10.9 3.1-17.5 1.2-6.6 2.6-13 3.1-14.2 0.8-2.2 1.4-2.3 12.6-2.3zm512.7 1.8l24 0.4c22.2 0.5 24.6 0.7 30.1 2.8 3.8 1.5 7.6 4 10.2 6.7 2.4 2.4 5.2 6 6.2 8.1 1 2 2.4 6.6 3.1 10.2 0.6 3.6 0.9 8.8 0.6 11.5-0.4 2.8-1.7 7.3-3 10-1.2 2.8-3.4 6.3-4.8 8-1.3 1.7-4.4 4-6.9 5.3-3.5 1.7-7.5 2.5-33.4 4.7v15.7c0 8.6-0.2 15.9-0.5 16.2-0.3 0.3-5.7 0.7-12.2 0.8-6.4 0.2-11.9 0.1-12.2-0.2-0.4-0.3-0.8-7.7-1-16.5-0.3-8.8-0.8-29.7-1.2-46.5-0.3-16.8-0.3-32 0.2-33.9zm-1236.3 2.3h35.9c31.1 0 36.1 0.2 36.5 1.5 0.3 0.8 0.5 4.6 0.5 8.5 0 3.8-0.5 7.9-1 9-0.9 1.8-2 2-10.3 2-5.9-0.1-9.8 0.4-10.9 1.2-1.5 1.1-1.9 4.3-2.8 20.8-0.5 10.7-1.2 28-1.4 38.5-0.2 10.4-0.7 19.6-1 20.5-0.3 0.8-1.8 1.8-3.3 2.1-1.6 0.4-7.5 0.6-23.8 0.4l0.3-21c0.1-11.6 0.7-30 1.2-41 0.5-11 0.7-20.3 0.4-20.5-0.3-0.3-5.2-0.8-20.9-1.5l-0.3-7c-0.2-3.9-0.1-8.5 0.3-10.3zm865.9 25.6c2.5 0.2 7.3 1.7 17.5 6.7l1.5-2.2c1.4-2 2.3-2.2 11.5-2.1 5.5 0 10.7 0.5 11.5 1 1.3 0.8 1.5 5.5 1.3 33.7-0.1 18.1-0.6 33.2-1 33.6-0.5 0.5-5.8 0.8-11.8 0.7-6.1 0-11.1-0.4-11.3-0.8-0.1-0.4-0.6-1.4-1.1-2.2-0.8-1.2-1.8-0.9-6.3 2-5 3.3-5.7 3.5-13.8 3.5-7 0-9.4-0.4-13.5-2.4-2.8-1.4-6.8-4.1-8.9-6-2.3-2.1-5.3-6.5-7.2-10.6q-3.3-7-3.9-13.5c-0.3-3.6-0.1-9 0.5-12 0.6-3 1.9-7.3 3-9.5 1-2.2 3.6-6 5.7-8.4 2.1-2.4 5.6-5.5 7.8-6.9 2.2-1.4 6.2-3.1 9-3.7 2.7-0.7 7-1.1 9.5-0.9zm-203 0.9c6.3 0.2 12.7 0.8 14.2 1.4 1.6 0.6 2.8 1.9 2.8 2.9 0 0.9-0.8 3.8-1.8 6.4-0.9 2.6-2.5 5.5-3.4 6.5-1.7 1.7-1.9 1.7-6 0.1-2.4-1-5.8-1.8-7.6-1.8-1.9 0-4 0.8-5.2 2-1.1 1.1-2 3.1-2 4.5 0 1.5 0.9 3 2.2 3.9 1.3 0.7 4.3 1.6 6.8 2 2.5 0.4 6.9 1.8 9.7 3.1 3.8 1.8 6.1 3.8 8 6.8 1.6 2.6 2.8 6.1 3.1 9.2 0.3 3.8-0.2 6.4-1.9 10.4-1.5 3.4-4.1 6.9-6.9 9.3-3.1 2.7-6.7 4.6-11.5 6-5.7 1.7-8.7 2-16 1.5-5-0.3-11-1.3-13.5-2.2-2.5-0.9-5.7-2.3-7.3-3.1-1.5-0.7-2.9-1.8-3.2-2.4-0.3-0.5 0.7-3.1 2.2-5.7 1.6-2.6 3.5-6.1 4.3-7.6 1.1-2.1 2-2.7 3.5-2.3 1.1 0.3 4.5 1.2 7.5 2.1 3 0.8 7.6 1.5 10.2 1.5 4.1 0 5-0.3 6-2.5 0.9-1.8 1-3.1 0.3-4.2-0.6-0.9-2.8-2.1-5-2.8-2.2-0.7-5.6-1.6-7.5-1.9-1.9-0.3-5.6-1.9-8.3-3.6-2.6-1.6-5.4-4.3-6.2-6-0.8-1.6-1.6-5.6-1.6-8.7-0.1-3.4 0.6-7.4 1.6-9.8 0.9-2.2 2.9-5.3 4.3-6.8 1.5-1.6 4.5-3.8 6.7-4.9 2.2-1.2 5.3-2.5 7-2.9 1.6-0.5 8.2-0.6 14.5-0.4zm512 0.2c2.5 0.2 6.6 1.7 9.2 3.4 2.7 1.6 5.5 2.9 6.3 2.9 0.8 0 1.5-0.7 1.5-1.5 0-0.9 1.3-1.7 3.2-2 1.8-0.3 7.1-0.5 20.3 0l0.6 4.5c0.4 2.5 0.8 19.8 1.2 72.5l-3.4 6.4c-1.9 3.5-5.5 8.3-8 10.5-3.2 2.9-6.5 4.7-11 6-3.5 1-9.8 2.1-13.9 2.4-5.7 0.3-9.3 0-15.3-1.7-4.2-1.1-9.4-3.1-11.5-4.4-2-1.3-5.4-4.3-7.5-6.5-2-2.3-4.2-5.4-4.7-6.9-0.6-1.5-0.7-3.1-0.3-3.5 0.4-0.4 5.8-0.9 11.9-1 10.4-0.3 11.3-0.1 16.5 2.6 4.6 2.4 6.1 2.7 10.4 2.1 4-0.5 5.7-1.4 8.7-4.6 3-3.1 3.8-4.6 3.8-7.6 0-2.1-0.5-4.5-1-5.3-0.8-1.3-1.3-1.2-3.7 0.6-1.6 1.2-5.1 2.8-7.8 3.6-3.8 1.1-6.7 1.3-12 0.6-4.5-0.5-8.8-1.8-11.9-3.6-2.7-1.5-6.4-4.5-8.1-6.7-1.8-2.2-4.2-6-5.3-8.5-1.1-2.5-2.4-6.1-3-8-0.5-1.9-1-4.6-1-6 0-1.4 0.4-5.7 0.9-9.7 0.5-4 1.8-9.2 3-11.5 1.2-2.4 3.6-6.1 5.4-8.3 1.7-2.2 5.4-5.2 8.1-6.7 2.7-1.5 6.9-3.2 9.4-3.7 2.5-0.5 6.5-0.7 9-0.4zm-71.5 0.9c2.7 0.3 7.4 1.7 10.4 3.2 4.6 2.3 5.9 3.7 12.6 15.7l0.3 25c0.1 13.8-0.1 25.2-0.5 25.5-0.5 0.3-5.6 0.4-11.6 0.3-9.2-0.2-10.8-0.5-11.2-2-0.2-1-0.7-10.3-1-20.8-0.5-14.9-1-19.7-2.3-22.5-1.2-2.4-2.8-3.8-5.2-4.6-2.1-0.7-4.5-0.8-6-0.3-1.4 0.5-3.6 2-5 3.5-2.5 2.5-2.5 2.9-3 23.4-0.3 12-0.9 21.3-1.5 21.9-0.6 0.5-5.6 1.2-11.3 1.5-9.9 0.6-10.2 0.6-11.1-1.6-0.5-1.3-0.8-16.7-0.6-66.3l6.5-0.6c3.6-0.3 8.7-0.3 11.4 0 2.7 0.4 5 1.2 5.2 1.9 0.2 0.7 0.6 1.9 0.9 2.7 0.4 1.2 1.4 0.9 5-1.5 2.5-1.6 6.4-3.4 8.7-3.9 2.4-0.5 6.5-0.7 9.3-0.5zm-831 1.1c3.8 0.3 9.5 1.5 12.5 2.6 3 1.1 7.4 3.3 9.7 4.9 2.4 1.5 5.9 5 7.8 7.6 2 2.6 4.5 7.6 5.6 11.2 1 3.6 1.9 8.5 1.9 11 0 2.5-0.9 7.2-2 10.5-1.1 3.3-3.6 8.3-5.4 11-1.9 2.9-5.8 6.7-9.2 9.1-3.9 2.6-8.8 4.8-14.4 6.3-7.1 2-10 2.3-18 1.8-6.4-0.3-11.3-1.2-15-2.7-3-1.2-7.3-3.4-9.5-4.9-2.2-1.6-5.7-5.2-7.7-8.2-2.1-3.1-4.4-8.1-5.3-11.9-1.2-4.5-1.5-8.3-1.1-12.5 0.4-3.3 1.8-8.5 3.2-11.5 1.4-3 3.8-7.1 5.3-9 1.5-1.9 5.7-5.4 9.2-7.8 3.5-2.4 8-4.7 9.9-5.2 1.9-0.5 6.2-1.4 9.5-1.9 3.3-0.5 9.1-0.7 13-0.4zm335.2-0.5c4-0.1 8 0 8.8 0.3 0.8 0.3 1.5 1.3 1.5 2.3-0.1 0.9-4.2 9.5-9.3 19-5.1 9.4-11.1 20.7-13.3 25-2.3 4.2-6.7 12.4-9.9 18.2-3.2 5.8-9 16.4-12.9 23.6-3.9 7.2-7.6 13.9-8.3 15-1 1.6-2.8 2-12.5 2.5-6.2 0.3-12.3 0.2-15.8-1.1l2-3.2c1.1-1.8 6.3-11.6 21.2-40.3l-1.6-4c-0.9-2.2-3.8-7.8-6.4-12.5-2.7-4.7-7.9-14.3-11.7-21.5-3.7-7.1-7.6-14.2-8.6-15.7-1.1-1.5-1.9-3.3-1.9-4 0-0.7 1.4-1.6 3.2-2 1.8-0.5 7.6-0.8 12.8-0.8 8.4 0 9.7 0.2 11.5 2.1 1.1 1.1 5.1 8.4 9 16.2 3.8 7.7 7.6 14.2 8.2 14.4 0.8 0.2 4.6-6.2 17.8-32.6l4.5-0.4c2.5-0.2 7.8-0.4 11.7-0.5zm422.4 0.6c7.7 0.2 10 0.5 10.4 1.7 0.3 0.8 0.7 13.3 1.1 27.8 0.3 14.4 0.3 29-0.6 38.7h-11.5c-6.3 0-11.5-0.1-11.6-0.2 0-0.2-0.2-15.5-0.5-34-0.4-30.6-0.3-33.8 1.2-34 0.9-0.2 6.1-0.2 11.5 0zm-571.4 0.8c5.7 0.2 10.6 0.6 11 0.8 0.5 0.3 0.6 10 0.4 21.8-0.3 18.3-0.2 21.8 1.2 24.6 1 1.8 3.1 3.9 4.9 4.7 1.8 0.8 4.4 1.2 5.8 0.9 1.4-0.3 3.5-1.1 4.8-1.7 1.3-0.7 3.1-2.3 4-3.7 1.4-2.1 1.8-6.1 2.2-24.1 0.3-12 0.9-22.1 1.3-22.5 0.5-0.5 4.1-1.1 8-1.3 4-0.2 9.3-0.1 16.7 0.9l-0.3 24.8c-0.3 24.1-0.3 24.9-2.8 30.2-1.4 3-4.1 6.8-6 8.4-1.9 1.6-5.7 3.9-8.4 5.2-2.8 1.2-6.8 2.5-9 2.9-2.2 0.3-7.8 0.6-12.5 0.6-4.7 0-11-0.4-14-1.1-3-0.6-7.3-2.1-9.5-3.4-2.2-1.3-5-3.4-6.2-4.7-1.2-1.3-3.1-4.5-4.2-7.1-1.9-4.4-2.1-6.7-2.1-28 0-12.8 0.3-24.3 0.6-25.5 0.4-1.2 1.4-2.4 2.3-2.7 0.9-0.2 6.2-0.2 11.8 0zm1083.3-0.5c2.5 0 6.3 0.5 8.5 1.2 2.2 0.7 5.7 2.3 11.7 6.2l1.7-2.2c1.4-2 2.5-2.2 12.1-2.3 8.7-0.1 10.6 0.1 11.2 1.4 0.5 0.9 0.9 15.9 1.3 65.1l-10.5 0.3c-9.9 0.3-10.6 0.2-12.3-2-1.7-2.1-2.1-2.1-4-0.8-1.2 0.8-3.8 2.2-5.7 3.2q-3.5 1.8-10 1.8c-3.6 0-8.1-0.5-10-1.2-1.9-0.7-5.5-2.6-8-4.2-2.5-1.6-5.5-4.1-6.7-5.5-1.3-1.4-3.7-5.5-5.5-9.1-2.6-5.1-3.4-8.1-3.7-14-0.3-6 0.1-9 2-15 1.9-6.1 3.4-8.5 7.9-13.3 3.8-4 7.1-6.4 10.5-7.7 2.7-1 7-1.9 9.5-1.9zm-197.6 1.4l0.7 4c0.4 2.2 0.9 17.2 1.9 62.5l-2.5 1c-1.4 0.6-6.1 1-10.5 1-6.7 0-8.3-0.3-10-2-1.9-1.9-2-3.4-2.2-33.8-0.1-17.5 0.2-32.2 0.7-32.5 0.5-0.4 5.6-0.6 21.9-0.2zm48.3-0.3c18.3 0.2 30.6 0.7 31.2 1.3 0.7 0.7-2.2 6.3-8.9 17.5-5.4 9.1-11.5 19.2-13.4 22.5-2.7 4.7-3.2 6.3-2.3 7.3 0.8 0.9 4.5 1.3 12.4 1.3 9.8-0.1 11.4 0.2 12.2 1.7 0.4 0.9 0.9 4.8 1 8.5 0.1 5.8-0.2 6.9-1.9 7.7-1.2 0.6-12.8 1-29.3 0.9-14.9-0.1-28.9-0.3-31-0.5-2.1-0.2-3.7-0.9-3.7-1.6 0-0.7 1.9-4.2 4.2-7.8 2.4-3.6 8.3-13 13.2-21 4.9-8 9.1-15.3 9.3-16.2 0.2-1.1-0.4-1.8-1.5-1.8-0.9-0.1-6.2-0.3-11.7-0.6-5.6-0.3-10.6-1-11.3-1.7-0.8-0.7-1.4-3.9-1.5-8.2-0.1-5.1 0.3-7.4 1.3-8.4 1.2-1 8.1-1.2 31.7-0.9zm76.4 0.6c16.7 0.2 30.7 0.6 31.1 1 0.4 0.4-0.5 2.9-2 5.5-1.5 2.6-7.3 12.4-13 21.7-5.6 9.4-10.2 17.9-10.2 19 0 1.9 0.7 2 25.5 2.5l0.3 6c0.2 3.3 0.1 7.5-0.8 12.5l-31.9-0.2c-17.6-0.2-32.3-0.6-32.8-1-0.4-0.4 0.1-2 1.2-3.5 1.1-1.5 2.4-3.6 3-4.5 0.5-1 3.9-6.4 7.4-12 3.5-5.7 8.5-13.7 11.1-17.8 2.7-4.1 4.6-8 4.4-8.7-0.3-0.8-2.8-1.4-7.2-1.5-3.7-0.1-8.7-0.3-11.2-0.3-2.5-0.1-5-0.2-5.5-0.3-0.6-0.1-1.4-3.9-1.8-8.4-0.7-6.7-0.6-8.5 0.6-9.3 0.9-0.6 12.7-0.9 31.8-0.7zm-1264.4 0.3c9.9-0.1 11.4 0.1 12 1.7 0.4 1.1-0.7 4.2-3.2 8.7-2 3.9-7.5 13.5-12 21.5-4.5 8-9.5 16.8-11 19.5-1.5 2.8-4.6 8.1-6.9 11.9-2.2 3.8-5 7.5-6.1 8.3-1.2 0.8-4.7 1.3-15.5 1.3l-4.4-9.2c-2.4-5.1-6.1-13.2-8.2-18-2.2-5-4.4-8.7-5.1-8.5-0.7 0.1-3.6 5.2-6.4 11.2-2.9 6.1-6.3 13.3-7.7 16-1.4 2.8-3.2 5.8-4.1 6.8-1.3 1.4-3.2 1.8-18.1 1.7l-2.1-4.7c-1.2-2.6-2.9-6.4-3.9-8.3-0.9-1.9-3.1-6.2-4.9-9.5-1.7-3.3-5.4-10.7-8-16.5-2.7-5.8-7-14.9-9.5-20.2-2.5-5.4-4.4-10.5-4.1-11.3 0.4-1.2 2.6-1.5 11.7-1.5 6.2 0 12.2 0.3 13.3 0.5 1.3 0.4 3 2.8 4.8 6.8 1.6 3.4 3.7 8 4.7 10.2 1 2.2 3.1 6.9 4.6 10.3 1.9 4.2 3.4 6.2 4.4 6 0.8-0.1 5.1-7.5 9.7-16.3 4.6-9 9-16.3 10-16.7 1-0.3 4.8-0.7 15.3-0.8l4 8.8c2.3 4.8 4.8 10.7 5.6 13.2 0.8 2.5 2.6 6.4 4 8.8 1.3 2.3 3 4.1 3.6 3.9 0.7-0.1 5.2-7.8 10-17.1 4.8-9.5 9.4-17.2 10.5-17.7 1-0.4 6.9-0.8 13-0.8z"/>
		<path id="Path 2" fill-rule="evenodd" class="s0" d="m1406.3 692c-1.2 0.5-3.8 3-5.8 5.7-2 2.6-3.6 5-3.6 5.3 0 0.3 2.4 2 5.3 3.9 4.6 2.9 6.2 3.4 11.8 3.5 3.6 0 8.9-0.5 11.8-1.2 2.8-0.6 7-2.3 9.2-3.7 2.2-1.4 4.3-3.3 4.7-4.3 0.3-1 0-2.1-0.9-2.7-0.8-0.5-1.8-2.2-2.1-3.8-0.5-1.9-1.5-2.9-3.4-3.3-1.6-0.4-5.5-0.1-8.8 0.6-4.5 0.9-6.6 0.9-8.2 0.1-1.3-0.6-3.5-1.1-5-1-1.6 0-3.8 0.4-5 0.9zm39.7 86.2c-3.2 1.2-7.7 4.1-10.7 6.9-2.9 2.7-6 4.9-6.8 4.9-0.8 0-2.8-1.1-4.5-2.5-1.7-1.4-4.1-2.5-5.5-2.5-1.5 0-3.9 1.4-6 3.5-1.9 1.9-4.3 3.5-5.3 3.5-0.9 0-3.7-1.4-6.2-3.1-2.5-1.6-5.6-3.3-7-3.6-1.5-0.3-3.5 0.1-5 1-1.4 0.9-3 2.3-3.5 3.1-0.7 1.1-0.5 3 0.8 6.3 1 2.9 1.7 7.6 1.7 12 0 4-0.4 9.2-0.9 11.5-0.6 2.4-1.6 9.1-2.3 15-0.7 5.9-0.9 11-0.5 11.5 0.5 0.4 4.1 1.1 8 1.5 4 0.3 9.4 1 12.1 1.5 3.4 0.5 5.5 1.6 6.8 3.3 1.1 1.5 1.9 4.1 1.8 6.2 0 2.1-0.5 4-1 4.3-0.5 0.3-1.8-0.5-2.8-1.8-1.1-1.2-4-2.8-6.5-3.5-2.6-0.6-6-1.2-7.7-1.2-1.7 0-4.5-0.6-6.2-1.3-1.8-0.8-3.9-1.2-4.5-1-0.7 0.1-1.3 1.3-1.3 2.5 0 1.3 2 5.4 4.4 9.3 4 6.3 4.9 7.1 9 8.2 2.5 0.7 8.2 1.3 12.6 1.3 6.4 0 8 0.3 8 1.5 0 0.8-1.3 2.2-3 3-1.8 0.9-5.6 1.5-9.2 1.4-3.5 0-6.8 0.5-7.3 1.1-0.7 0.7 0.1 4.7 2.4 12.3 1.9 6.1 3.7 13.4 4.1 16.2 0.4 2.7 1.5 8.6 2.3 13 0.9 4.4 2.3 13 3.2 19 0.8 6 1.5 12.9 1.5 15.2 0 2.4 0.5 4.5 1 4.8 0.5 0.3 3.8-0.8 7.3-2.5 3.4-1.6 6.8-3 7.5-3 0.6 0 1.5-0.6 1.8-1.3 0.4-0.7-0.9-2.4-3.1-4.2l-3.7-3c-1.7-20.1-1.6-24.6-0.6-29.5 1-4.8 1.8-6.5 3.1-6.7 1.5-0.3 1.7 0.9 1.8 12.9 0.1 7.3 0.4 14.7 0.8 16.3 0.4 1.9 1.6 3.4 3.4 4.2 2.4 1.2 3.2 1 8.5-2.2 4.4-2.7 7-3.5 11.5-3.7 4.3-0.2 6 0.1 6.6 1.2 0.5 0.8 0.7 2.3 0.5 3.2-0.2 1-1 1.9-1.6 1.9-0.7 0.1-1.9 0.1-2.5 0-0.7 0-2.9 0.6-4.8 1.4-1.9 0.8-3.3 2.1-3.1 2.7 0.1 0.7 1.4 1.2 2.7 1 1.3-0.2 6-0.4 10.4-0.5 7-0.2 8.4 0.1 11.5 2.2 2.7 1.8 4.3 2.3 7 1.9 1.9-0.3 5.8 0 8.5 0.7 2.8 0.7 7.3 2.1 10 3 2.8 0.9 5.9 2.2 7 2.9 1.1 0.7 3.1 3.5 4.5 6.2 1.4 2.7 2.7 6.4 3 8.3 0.4 2.7 1.1 3.6 3.5 4.4 2.3 0.7 5.2 0.4 12-1.3 6.1-1.6 13.6-2.5 23.3-2.9l14.4-0.6c6-7 9.6-12.6 11.8-17 2.2-4.4 4-8.7 4-9.5 0-0.8 0.9-4.2 2-7.5 1.2-3.5 2-8.5 2-12 0-3.3-0.7-8.7-1.6-12-0.9-3.3-2.5-7.8-3.6-10-1.2-2.2-2.5-5.4-2.9-7-0.6-2-0.3-5.4 0.7-10 0.9-3.9 1.4-8.6 1.1-10.5-0.4-2.5-1.9-4.6-4.9-7.2l-4.3-3.8-1-17.5c-6.6-3.1-9.1-4.9-9.7-6-0.7-1.3-0.9-5-0.5-10.8 0.5-5.4 0.3-8.9-0.3-9.2-0.5-0.3-2.1-2.6-3.6-5.3-1.4-2.6-3.6-6.5-4.9-8.7-1.4-2.2-2.5-5.2-2.5-6.8 0-1.5-0.6-4.2-1.3-6-0.9-2-3.4-4.5-7-7-3.7-2.4-6.8-3.7-8.9-3.7-1.8 0-5.1 0.4-7.3 0.9-2.4 0.6-4.9 0.6-6.2 0-1.3-0.5-4.6-3-7.4-5.7-3.1-2.8-6-4.6-7.3-4.6-1.1 0.1-4.2 0.9-6.8 1.8-2.7 0.9-5.6 1.6-6.5 1.6-1 0-2.9 1.1-4.3 2.5-1.4 1.4-3.2 2.6-4 2.6-0.8 0-3.6-2.5-6.2-5.6l-4.8-5.5c-13.1 0.1-17.2 0.8-21 2.2zm199.5 32.1c-1.1 0.8-4.1 4.7-6.7 8.8-2.6 4.1-4.8 8.5-4.8 9.9 0 1.4-0.9 5.4-2.1 9-1.1 3.6-2.4 7.6-2.9 9-0.4 1.4-2.7 6.8-5 12-2.9 6.6-4.6 12.3-5.6 18.5-0.7 5-2 11.7-2.9 15-0.8 3.3-2.2 11.6-2.9 18.5-0.8 6.9-1.7 20.6-2.1 30.5-0.5 12.2-0.3 20.1 0.5 24.5 0.9 4.9 0.9 7.8 0 12-0.6 3-4.6 12.4-8.8 20.9-7.3 14.7-8 15.7-14.2 20.6-5.4 4.3-6.8 6.1-8.2 10.4-1.6 4.7-2.4 5.4-8.5 9-3.8 2.1-7.5 4.7-8.4 5.7-0.9 1.1-2.6 3.7-3.7 5.9-1.1 2.2-2.8 4.8-3.8 5.7-1.1 1-4.6 2.5-7.9 3.3-3.3 0.9-7.5 2.7-9.2 4.1-1.8 1.3-3.5 3.2-3.8 4.1-0.3 1-2.7 3.1-5.3 4.7-2.6 1.5-8.1 3.7-12.2 4.7-4.1 1-10.1 1.9-13.2 1.9-4.9 0-6.3 0.4-9 2.9-1.8 1.5-4.9 3.6-6.8 4.6-2.1 1-4.7 1.5-6.5 1.2-1.7-0.3-3.9-0.8-5-1.2-1.4-0.5-2.2-0.2-2.8 1.2-0.5 1.3 0.1 2.8 2.1 5.3 1.8 2.2 6.5 5.4 12.3 8.3 5.2 2.7 12.6 5.7 16.4 6.8 4.9 1.3 10.4 1.9 18.5 1.9 6.3 0 14.9-0.7 19-1.5 4.1-0.8 10.4-1.8 14-2.3 3.6-0.5 11.5-2.2 17.5-3.7 6-1.5 12.8-3.3 15-4.1 2.2-0.7 6.9-3.2 10.5-5.5 3.6-2.4 10.5-7.3 15.5-11 5-3.7 11.1-8.9 13.6-11.6 2.5-2.6 7.4-8.4 11-12.8 3.5-4.4 8.2-10.5 10.5-13.5 2.2-3 4.8-7.2 5.7-9.3 1-2 1.7-5.8 1.7-8.5 0-2.6-0.7-6.7-1.5-9.2-0.8-2.5-1.5-5.9-1.5-7.5 0-1.6-0.6-5.3-1.4-8-0.8-2.8-2.3-8.1-3.5-12-1.2-3.9-2.5-11.7-3.1-17.5-0.5-5.8-0.7-12.1-0.4-14 0.2-1.9 0.9-11.4 1.4-21 0.8-14.2 0.7-18.7-0.5-24-0.8-3.6-2.2-7.6-3.2-8.9-1.5-2-2.1-2.2-4-1.2-1.3 0.6-3.4 1.1-4.8 1.1-1.4 0-3.2-0.2-4-0.5-0.8-0.3-1.5-1.1-1.5-1.8 0-0.6 1.5-2.9 3.5-5 1.9-2 5.1-4.4 7-5.2 1.9-0.8 6.9-4.8 11.1-8.8 4.2-3.9 8.8-9.2 10.2-11.7 1.5-2.5 3.3-6.1 3.9-8 0.8-2.1 1.3-9.2 1.4-18 0.1-13.2-0.1-15.3-2.6-23-1.5-4.7-3.5-9.2-4.4-10.1-0.9-0.9-3.9-1.9-6.6-2.3-3.5-0.4-5.7-0.2-7 0.7zm-623.7 8.4c-0.9 1-2.1 3.4-2.8 5.3-0.7 1.9-1.1 4.2-0.8 5 0.3 0.8 2.9 2.7 5.9 4.2 3 1.5 6.5 3.7 7.9 4.8 1.4 1.1 6.3 2.9 11 4.1 4.7 1.1 9.6 1.9 11 1.7 1.7-0.2 2.7-1.2 3.3-3.3 0.6-1.9 0.5-5.1-0.2-8.5-0.6-3-1.7-6.3-2.3-7.3-0.8-1-3.9-2.4-7.3-3.2-3.3-0.7-7.8-2-10-2.9-2.2-0.8-6.3-1.5-9.1-1.6-3.7 0-5.5 0.5-6.6 1.7zm-87.8 27.3c-3.6 0.9-9.2 2.7-12.5 3.9-3.3 1.3-7.1 3.1-8.5 4-1.4 1-3.3 3.7-4.2 5.9-1.2 2.9-1.8 6.8-1.8 12.4 0 7.7-0.2 8.6-3.2 13.2-1.8 2.7-4.1 5.3-5 5.7-1 0.5-3.5 0.6-5.5 0.3-2.1-0.3-5.6-1.8-7.8-3.2-2.2-1.5-6.5-5.3-9.5-8.5-3.2-3.4-6.1-5.7-7-5.5-0.8 0.3-2.5 2-3.8 3.9-1.3 1.9-2.8 5.2-3.4 7.4-0.8 3.1-0.7 6.3 0.7 14.5 1 6.2 1.5 12.2 1.1 14.5-0.3 2.2-1.2 4.6-1.9 5.3-0.6 0.7-2.3 1.3-3.7 1.3-1.4 0-3-0.6-3.7-1.3-0.6-0.7-1.4-4-1.8-7.3-0.5-3.9-1.6-7.2-3.1-9.3-1.6-2.2-3.1-3.1-4.6-3-1.4 0.2-3.2 2-5 4.8-1.5 2.5-3.3 7.2-3.9 10.5-0.6 3.3-1.5 8.2-2.1 11-0.6 2.9-2.1 6.1-3.5 7.5-2.5 2.5-2.5 2.5-0.9 7.5 0.9 2.7 1.6 5.9 1.6 7 0 1.1 1.7 4.9 3.7 8.5 2.1 3.5 4.9 6.9 6.3 7.6 1.4 0.6 3.9 1.8 5.5 2.6 2.8 1.3 3 1.7 2.9 6.8 0 3-0.3 8-0.5 10.9-0.4 5.3-0.3 5.6 2.8 7.5 1.7 1.2 3.6 3.1 4.2 4.3 0.6 1.3 1.1 3.8 1.1 5.5 0 1.8 0.7 5.5 1.6 8.3 0.8 2.7 2.3 5.9 3.3 7 1 1.1 2.4 3.1 3.1 4.5 0.7 1.4 1 3.4 0.7 4.5-0.3 1.1 0.3 4.5 1.4 7.5 1.1 3 2.6 7.9 3.4 10.7 1.3 4.5 2.8 6.6 9.9 13.5 5.3 5.3 9.1 10 10.5 13 1.1 2.7 3.1 5.4 4.4 6.2 1.2 0.8 6 2.6 10.7 4 4.7 1.4 11.7 4.4 15.5 6.7 3.9 2.3 8.4 4.5 10 5 2.1 0.7 4.3 0.5 7.5-0.6 2.5-0.9 7-1.5 10-1.5 3 0 7.1 0.5 9 1.1 1.9 0.6 4.4 0.9 5.5 0.6 1.3-0.4 3.8-4.1 7-10.2 4.8-9.2 4.9-9.7 3.2-11.3-1.2-1.2-3.9-1.8-8.5-2l-6.7-0.3c-7 7.6-10.7 10.8-12.7 11.9-2.1 1.2-5.5 2.5-7.5 2.8-2.1 0.3-5.4 0.3-7.3-0.1-2.2-0.5-5.5-2.6-8.9-5.9-2.9-2.8-6.4-6.8-7.7-8.9-1.3-2-2.4-4.2-2.4-4.7 0-0.5-1.6-3.4-3.5-6.3-2-2.8-3.6-5.5-3.5-6 0-0.4-2.1-1.8-4.7-3.1-2.9-1.4-6.3-4.3-8.6-7.2-2.1-2.7-3.8-5.6-3.8-6.4 0-0.8 0.8-2.3 1.8-3.2 1-1 4.3-2.2 7.3-2.8 3-0.6 6.7-2 8.3-3.1 1.5-1 3.4-1.9 4.2-1.9 0.8 0 5-1.1 9.3-2.5 5.5-1.8 9.9-2.5 15.2-2.5 4.2 0 10.3 0.8 14 1.9 3.6 1 8.3 2.7 10.5 3.8 2.2 1.2 5.8 2.6 8 3.1 2.2 0.6 5.2 1.4 6.8 1.7 1.5 0.3 4.1 1.7 5.9 3.2 1.7 1.6 4 4.6 4.9 6.8 1 2.2 1.9 5.2 1.9 6.7 0 2.4 0.4 2.8 2.8 2.5 2.1-0.1 2.8-0.8 3-2.7 0.1-1.4 0.7-4.3 1.3-6.5 0.5-2.2 1.8-6.3 2.8-9 1-2.8 2.9-8.6 4.1-13 1.3-4.4 3.3-10.7 4.6-14 1.2-3.3 3.3-10.5 4.5-16 1.2-5.5 3.2-14.3 4.5-19.5 1.2-5.2 2-10.5 1.8-11.8-0.4-2-1-2.2-5.9-2.2-4 0-7-0.8-11-2.8-4.3-2.1-5.5-3.2-5.5-5 0-1.9 0.7-2.3 4.8-2.8 2.6-0.3 5.8-0.3 7.2 0.1 1.4 0.4 5.1 0.9 8.3 1.1 4.5 0.3 5.9 0.1 6.5-1.2 0.4-1 0.1-1.9-0.8-2.5-0.8-0.5-5.3-0.9-10-0.9-6.9 0.1-8.8-0.3-10.1-1.7-0.9-1-2.8-4.2-4.3-7.1-1.4-2.8-2.6-6.9-2.6-9 0-2 0.5-4.3 1.2-5 0.7-0.6 2.8-1.2 4.8-1.2 1.9 0 5.1 0.4 7 0.9 1.9 0.5 7.6 1.2 12.5 1.6l9 0.7c2.6-6 3.8-10.6 4.5-14.2 0.6-3.6 1.6-8.1 2.2-10 0.5-1.9 2-7.3 3.4-12 1.3-4.7 2.3-10.8 2.3-13.5-0.1-2.8-0.4-6.4-0.8-8-0.6-2.7-1-3-4.6-3.1-2.2-0.1-6.5-0.6-9.5-1.2-3-0.6-9.1-1.4-13.5-1.7-4.9-0.5-11.1-1.9-16-3.7-4.4-1.6-11.8-3.8-16.5-4.9-6.2-1.5-12.5-2.1-23-2.3-10.7-0.2-16.2 0.2-21 1.4zm-167.7 52.5c-3.7 3.8-4.5 5.5-5.8 11.7-1.3 5.9-1.4 9.6-0.6 19.3 0.5 6.6 1.9 15.1 3.1 19 1.1 3.9 3 12 4.1 18 1.5 8.9 1.7 12.6 1 19-0.4 4.4-1.8 13.2-3 19.5-1.2 6.3-4.8 19.3-7.9 28.9-3.1 9.5-8 21.9-10.8 27.5-2.8 5.5-7.7 15.1-11 21.1-3.2 6.1-8 13.5-10.7 16.5-2.6 3-4.7 6.2-4.7 7 0 0.8 4.2 5.8 9.3 11.1 5 5.3 12.4 12 16.2 14.9 3.9 2.9 11.4 9.4 16.9 14.4 5.4 5 12.1 10.5 15 12.3 2.8 1.8 7.4 4.4 10.1 5.9 2.8 1.5 7.5 4.4 10.5 6.4 3 2.1 9.6 5.7 14.5 8 5 2.3 12.4 5.4 16.5 7 4.1 1.5 11 3.5 15.3 4.4 4.3 0.9 12.4 1.6 18.5 1.6 5.9 0 12.5-0.5 14.7-1.1 2.2-0.6 8.3-3.1 13.5-5.6 5.2-2.4 11.5-6.2 14-8.3 3.4-2.9 4.9-5.1 6.3-9.4 1-3.4 1.4-6.1 0.8-6.9-0.5-0.6-5.3-2.5-10.7-4-5.5-1.6-13.5-4.8-17.9-7.1-4.4-2.3-10.7-6.4-14-9-3.3-2.6-7.3-5.9-9-7.3-1.6-1.4-9.1-6.1-16.5-10.6-7.4-4.4-18.1-11.9-23.8-16.6-5.6-4.7-10.3-8.9-10.2-9.4 0-0.4-5.7-5.7-12.7-11.9-7.1-6.1-13.3-11.9-13.9-12.7-0.5-0.9-2.2-4.3-3.6-7.6-1.5-3.3-3.6-9.5-4.7-13.8q-2.1-7.7-2-16.5c0-4.8 0.4-10.7 0.9-13.2 0.4-2.5 2.2-10.1 3.9-17 1.6-6.9 3.5-15.2 4.1-18.5 0.5-3.3 1-8.7 1-12 0-3.9 0.6-7.6 1.9-10.5 1.2-2.5 2.1-5.4 2.1-6.5-0.1-1.1 1.2-4.7 2.6-8 1.5-3.3 3.3-9.4 4-13.5 0.7-4.1 1.3-11.8 1.4-17v-9.5c-6.4-8.7-9.7-11.7-11.8-12.7-2-1-5.7-1.8-8.1-1.8-4 0-4.9 0.5-8.8 4.5zm686.2 76.4c-8.3 0.4-14.9 1.1-16.2 1.8-1.3 0.7-2.3 1.8-2.3 2.3 0 0.5 0.9 1.3 1.9 1.7 1.1 0.5 8.4 0.5 16.3 0.2 10.9-0.5 15.3-0.3 18.3 0.7 2.6 0.9 4.3 1.1 5 0.4 0.5-0.5 0.7-1.6 0.3-2.5-0.5-0.8-2.3-2.4-4-3.5-1.8-1.1-3.8-1.9-4.3-1.8-0.5 0.1-7.3 0.4-15 0.7zm-13 14.3c-1.6 0.5-2.8 1.5-2.7 2.1 0.1 0.7 1.2 2.2 2.4 3.4 1.3 1.1 4.1 2.7 6.3 3.4 3.6 1.1 4.5 1 10.3-1.4 3.4-1.5 7.8-2.7 9.7-2.7 2.7 0 3.4-0.4 3.3-1.7-0.2-1.2-2-2.1-6.3-3-3.3-0.7-9.2-1.2-13-1.2-3.8 0-8.3 0.5-10 1.1zm-507.3 55.5c0.2 1 4.5 3.5 11.3 6.5 6 2.6 12 4.8 13.3 4.8 1.7 0 2.2-0.6 2.2-2.5 0-1.4-1-3.3-2.3-4.3-1.2-0.9-5.2-2.3-8.7-3-3.6-0.7-7.8-1.7-9.5-2.2-1.6-0.6-3.8-1-4.8-1-1.2 0-1.8 0.6-1.5 1.7zm-9.8 12c0.3 2.1 1.7 5.7 3.1 8 2 3.4 3.5 4.7 7.3 6 4.5 1.6 4.9 1.6 8.2-0.3 2.7-1.5 3.5-2.5 3.5-4.8 0-2.6-0.8-3.3-9.5-7.7-5.2-2.7-10.4-4.9-11.4-4.9-1.7 0-1.8 0.5-1.2 3.7zm45.4 171c-2.7 0.2-4.8 0.8-4.8 1.3 0 0.5-0.7 1.7-1.6 2.5-0.9 0.8-3.4 1.5-5.7 1.5-2.3 0-6.4 0.7-9.2 1.6-2.7 1-9 4.2-14 7.2-5 3-10.8 7.3-13 9.7-2.2 2.3-7.5 8-11.8 12.6-6.9 7.5-7.7 8.8-7.5 11.9 0.2 2.7 1.1 3.9 3.8 5.7 1.9 1.3 5.1 2.6 7 2.9 2.6 0.4 4 0.1 5.3-1.3 1-1 3.7-5.6 6-10.2 2.9-5.9 5.1-8.9 7.1-10 1.6-0.9 3.3-2.6 3.8-3.8 0.4-1.3 1.1-2.3 1.6-2.3 0.4 0 4.1-2.9 8.2-6.6 4.1-3.6 10.2-8.4 13.5-10.5 3.3-2.1 6.7-3.9 7.5-3.9 0.8 0 4.1-1.3 7.3-2.8 3.2-1.5 5.8-2.9 5.8-3.2-0.1-0.3-0.6-1.1-1.3-1.8-0.7-0.7-1.8-1.1-2.3-1-0.5 0.1-3.1 0.3-5.7 0.5zm-102 9.6c-6.8 3.5-15 8.2-18.2 10.3-3.2 2.1-7.7 5-10 6.3-2.3 1.3-7 4.4-10.6 6.8-3.6 2.4-9 6.1-12 8.3-3 2.3-6.9 5.5-8.6 7.3-1.7 1.7-5.9 7.5-9.3 12.7-3.4 5.2-6.8 11.7-7.6 14.5-0.8 2.7-2.2 7.7-3 11-0.9 3.3-2 7.6-2.5 9.5-0.5 1.9-1.4 7.1-2 11.5-0.5 4.4-1.9 11.2-3.1 15-1.2 3.8-3.5 9.9-5.3 13.5-2.3 4.9-5.5 8.7-13.1 16.1-5.5 5.4-13.8 12.7-18.5 16.4-4.7 3.6-10.7 8-13.5 9.6-2.7 1.6-9 5.8-14 9.4-5 3.5-14.6 9.6-21.5 13.6-6.9 4-16.1 9.2-20.5 11.6-4.4 2.4-9.2 5.2-10.7 6.1-1.4 0.9-5.3 3.3-8.5 5.2-3.2 1.8-7.1 4.2-8.8 5.2-1.6 0.9-5.7 3.1-9 4.8-3.3 1.7-7.6 4-9.5 5.2-1.9 1.1-5.1 3.1-7 4.3-1.9 1.3-7.8 4.5-13 7.3-5.2 2.7-12.2 6.5-15.5 8.3-3.3 1.9-8.2 4.5-11 5.8-2.7 1.3-7.7 3.6-11 5.1-3.3 1.5-9.6 4.4-14 6.4-4.4 1.9-8.6 3.6-9.2 3.6-0.7 0-4.1 1.1-7.5 2.4-3.5 1.4-12 4.5-19 7-7.1 2.5-13.6 5-14.5 5.6-1 0.5-6.6 2.5-12.5 4.5-6 1.9-11.5 3.5-12.3 3.5-0.8 0-4.5 1.6-8.2 3.5-3.8 2-11.3 5-16.8 6.6-5.5 1.7-13.5 4.6-17.7 6.5-4.3 1.9-8.5 3.4-9.3 3.4-0.8 0-1.7-0.6-1.8-1.3-0.2-0.6 3.4-5 8-9.7 4.6-4.7 8.6-9.4 8.9-10.5 0.3-1.1 3.1-3.6 6.2-5.6 3.2-2 7.3-4.1 9.2-4.7 1.9-0.6 6.7-2.9 10.5-4.9 3.9-2.1 7.1-4.5 7.3-5.3 0.1-0.8-1.6-4.4-3.8-8-2.2-3.6-5.4-9.1-7-12.3-1.7-3.1-3.4-5.9-4-6.2-0.5-0.3-2.6-3-4.5-6-3.1-4.9-4.9-6.3-15.7-12.7-6.8-3.9-13.2-7.4-14.3-7.6-1.1-0.3-3.6-1.5-5.5-2.7-1.9-1.2-6.9-3.4-11-5-4.1-1.5-10.9-4.1-15-5.8-4.1-1.6-11.8-5.4-17-8.3-5.2-3-10.3-5.4-11.2-5.4-1 0-3.9-1-6.5-2.1-2.7-1.2-7.3-2.6-10.3-3.1-3-0.6-6.8-1.2-8.5-1.5-1.7-0.2-3.5 0.1-4.3 0.9-0.6 0.7-1.7 4.2-2.2 7.8-0.6 3.6-1.6 8.1-2.2 10-0.6 1.9-1.7 7.1-2.4 11.5-0.7 4.4-1.8 10.2-2.4 13-0.6 2.8-1 11.8-0.9 20.5 0.1 8.8-0.2 17.5-0.9 20-0.6 2.5-2.2 9-3.6 14.5-1.4 5.5-2.6 12.5-2.6 15.5 0 3-0.4 8-1 11-0.5 3-1.4 9.8-2 15-0.7 5.2-1.6 12.2-2.2 15.5-0.6 3.3-1.2 10-1.3 15-0.1 5-0.5 12.2-0.9 16-0.3 3.8-1.1 11.3-1.7 16.5-0.6 5.2-1.1 20.3-1.2 33.5-0.1 16.8 0.2 25.3 1.1 28.2 1 3.6 1.9 4.6 5.5 6.2 2.3 1 6.9 3 10.2 4.6 3.3 1.5 6.8 3.1 7.8 3.6 0.9 0.5 5.2 1.5 9.5 2.3 4.2 0.8 11.5 2 16.2 2.6 5.3 0.8 12.3 1 18.5 0.6 5.5-0.3 11.4-0.2 13 0.2 1.7 0.4 9.1 0.5 16.5 0.1 9.3-0.5 16.3-1.5 22.5-3.2 5-1.4 13.3-3.6 18.5-5.1 5.2-1.4 10.9-3.2 12.5-4 1.7-0.7 7.1-3 12-5.1 5-2 10.8-4.1 13-4.5 2.2-0.4 9.9-2.8 17-5.4 7.2-2.6 16.4-6.5 20.5-8.8 4.1-2.2 9.5-4.7 12-5.4 2.5-0.7 5.2-2 6-2.9 0.8-0.9 1.8-1.6 2.3-1.5 0.4 0 4.5-1.8 9.2-4 4.7-2.2 11.7-6.6 15.7-9.8 3.9-3.1 9.5-8.2 12.4-11.2 2.9-3 6.3-7.3 7.6-9.5 1.3-2.1 3.8-5.3 5.6-7 1.9-1.6 7.3-6.6 12-11 4.8-4.5 10.3-9.2 12.2-10.5 1.9-1.3 7.8-6.1 13-10.6 5.2-4.5 12.4-10.1 16-12.6 3.6-2.4 9.2-5.9 12.5-7.8 3.3-1.9 9.6-6.2 14.1-9.5 4.5-3.3 11.4-8.4 15.5-11.3 4.1-2.9 17-12.1 28.7-20.5 11.7-8.4 22.7-16.2 24.5-17.4 1.7-1.2 5.7-3.6 8.7-5.3 3-1.7 9.4-6.1 14.2-9.8 4.8-3.7 10.6-7.9 13-9.3 2.4-1.4 9-5.5 14.8-9.2 5.8-3.6 11-6.7 11.5-6.7 0.5 0 3.7-1.4 7-2.9 3.3-1.6 10.5-5 16-7.6 5.5-2.6 14-7.1 19-10.1 5-2.9 10.5-6.7 12.3-8.3 1.7-1.7 3.2-3.7 3.2-4.4-0.1-0.6 0.6-1.9 1.5-2.7 0.8-0.8 1.7-2.8 2-4.5 0.2-1.7 1.6-4.6 3-6.5 1.4-1.9 3.8-6 5.3-9 1.7-3.4 5.7-8.5 10.7-13.3 4.4-4.4 10.3-9.2 13-10.8 2.8-1.7 13.1-7 23-12 9.9-5 19.5-10 21.3-11.2 1.8-1.2 5.6-4 8.4-6.2 2.8-2.2 6.6-5 8.4-6.3 1.9-1.2 3.4-2.9 3.4-3.7 0-0.8-0.6-1.8-1.2-2.1-0.7-0.3-4.2 0-7.8 0.6-3.6 0.6-8.5 1.3-11 1.6-2.5 0.2-7.4 1.1-11 1.9-3.6 0.9-8.1 2.2-10 2.9-1.9 0.8-5.7 2.1-8.5 3-2.7 0.8-7 2.2-9.5 3.1-2.5 0.9-6.1 2.5-8 3.4-1.9 1-7.1 3.9-11.5 6.5-4.4 2.5-12.5 8.2-18 12.6-5.5 4.4-12.9 10.1-16.4 12.7-3.6 2.7-9.6 7.8-13.5 11.5-5.4 5-8 6.8-10.8 7.2-2.7 0.4-3.8 0.2-3.8-0.7 0-0.6 0.7-3.2 1.5-5.7 0.9-2.5 2.8-5.8 4.3-7.4 1.5-1.5 7-6.5 12.2-11.1 5.2-4.5 10.6-8.8 12-9.5 1.4-0.8 4.7-3.4 7.4-5.9 2.6-2.5 8.5-7.2 13-10.3 4.4-3.2 11.3-7.3 15.1-9.3 3.9-1.9 14-5.7 22.5-8.5 8.5-2.7 16.6-5 18-4.9 1.4 0 3.1-0.6 3.7-1.3 1-1 0.9-2.3-0.8-6.3-1.2-2.8-2.3-5.2-2.6-5.5-0.2-0.3-3.4 0.5-7.1 1.7-3.7 1.1-9.8 3-13.7 4.1-3.8 1.2-9.2 2.6-12 3.3-2.7 0.7-7.7 2.2-11 3.5-3.3 1.3-11.3 3.7-17.7 5.4-6.5 1.6-14.2 4.2-17 5.7-2.9 1.4-6.7 4-8.5 5.7-1.7 1.7-4.4 4.3-6 5.7-1.5 1.4-3.9 4-5.3 5.8-1.4 1.7-3.1 3.2-3.7 3.1-0.9 0-1.1-1.1-0.8-3.8 0.3-2 1.1-6.1 1.8-9.1 0.8-3.4 2.4-6.8 4.7-9.5 2-2.2 3.8-5.2 4.2-6.6 0.4-1.5 1.9-3.1 3.9-4 1.8-0.8 4-2.6 4.8-3.9 0.9-1.3 5-3.9 9.1-5.8 4.1-1.9 8.3-3.9 9.3-4.4 0.9-0.5 2.3-0.9 3-0.9 0.6 0 4.8-1.1 9.2-2.4 4.4-1.4 14.3-3.8 22-5.5 7.7-1.7 15.2-3.1 16.8-3.1 1.5 0 5.2-0.9 8.2-2 3.8-1.4 5.5-2.5 5.5-3.8 0-0.9-0.4-2.2-0.8-2.8-0.4-0.7-6.6-1.4-15.7-1.8-8.2-0.3-16.3-0.2-18 0.3-1.6 0.5-5.5 1.4-8.5 2.1-3 0.7-11.8 3.3-19.5 5.8-7.7 2.4-18.5 6.5-24 9-5.5 2.5-11.2 5.4-12.7 6.4-1.6 1-3.5 1.8-4.3 1.8-0.8 0-2.2-1-3-2.3-1.1-1.7-1.2-2.6-0.2-4.2 0.6-1.1 1.4-4.7 1.8-8 0.4-3.3 2-9.6 3.6-14 1.6-4.4 3.8-9.3 4.8-11 1.1-1.7 4.2-5.7 6.9-9 2.8-3.3 8.2-9 12-12.8 3.9-3.7 7.4-6.7 7.9-6.7 0.4 0 4.1-1.6 8.2-3.5 4.1-1.9 8.1-3.5 8.8-3.5 0.7 0 1.7-0.5 2.3-1 0.5-0.6 4.5-1.4 8.9-1.7 6.7-0.6 8.8-1.3 13-4 2.8-1.8 5.7-3.5 6.5-3.8 0.8-0.2 2.3-1.8 3.3-3.5 0.9-1.6 1.7-3.5 1.7-4 0-0.5-1.7-1.4-3.7-2-2.1-0.5-9.5-1-16.5-1h-12.8zm116.8 10.6c-1.1 0.4-4.5 2.4-7.5 4.4-3.1 2.1-7.8 5.6-10.7 7.9-2.8 2.3-8.6 7.1-13 10.5-4.3 3.4-9.1 7.1-10.6 8.2-1.5 1.1-2.7 2.7-2.7 3.6 0 0.8 0.5 1.6 1.2 1.8 0.7 0.2 4.9 1.2 9.3 2.2 4.4 1 10.2 2.4 13 3.1 2.7 0.8 7.2 1.4 10 1.4 2.7 0 8.6 0.7 13.1 1.7 6.1 1.3 8.5 1.5 9.5 0.6 0.8-0.6 2.6-4.5 4.1-8.7 1.5-4.2 2.8-8.1 2.8-8.6 0-0.6-1.7-3-3.8-5.3-2.1-2.3-4.6-6.3-5.5-8.7-1-2.5-2.3-6.8-3-9.5-0.8-3-1.8-5.1-2.7-5.2-0.9-0.2-2.4 0.1-3.5 0.6zm35.2 0.7c-1 0.2-1.5 1-1.2 1.9 0.2 0.8 0.5 1.9 0.5 2.5 0 0.5 2 1 4.4 1 2.6 0 5.1-0.7 6-1.5 0.9-0.9 1.6-2.2 1.6-3 0-1.2-1.2-1.5-4.8-1.4-2.6 0-5.5 0.3-6.5 0.5zm19.3 5.1c0 1 0.3 2.3 0.7 3.1 0.4 0.7 2.1 1.1 3.8 1 2.4-0.3 3-0.8 3.2-3.1 0.2-2.6 0-2.7-3.7-2.7-3.2 0-4 0.3-4 1.7zm337.4 3.9c-0.4 0.4-0.7 1.4-0.6 2.3 0.1 0.8 1 3.4 2.1 5.6 1.1 2.2 2.7 8.2 3.6 13.5 1.3 7 1.5 12.5 1.1 21.5-0.3 6.6-0.8 14.1-1.1 16.7l-0.5 4.8c5.8 0 7.8-0.8 9.3-2.3 1.7-1.7 2.6-4.3 3.5-10.2 0.7-4.9 1-12.2 0.6-18.5-0.3-5.8-1.6-14.6-2.8-19.5-1.9-8.1-2.5-9.1-5.6-11.1-2-1.2-4.7-2.5-6.2-2.8-1.4-0.3-2.9-0.3-3.4 0zm-30.4 1.1c-0.9 0.3-1.9 1-2.3 1.7-0.4 0.6-0.7 2.5-0.7 4.3 0 1.8 0.4 3.3 1 3.3 0.5 0 3-0.9 5.5-2 2.4-1.1 4.7-2.5 5-3 0.2-0.6 0-1.9-0.5-3-0.7-1.4-2-2-3.8-2-1.5 0.1-3.4 0.4-4.2 0.7zm-18.5 1.8c-1.9 1-2.8 2.2-2.7 3.5 0.1 1.1 1.1 2.2 2.4 2.5 1.3 0.3 3.4 0.5 4.8 0.3 2.1-0.3 2.5-0.9 2.6-4.1 0.2-3.2-0.1-3.7-2-3.7-1.2 0-3.5 0.7-5.1 1.5zm-43.1 3.8c-1.9 1.3-1.8 1.6 2.7 6.3 2.5 2.7 5.1 5.8 5.6 6.9 0.7 1.1 1 7.6 0.9 15.7-0.1 12.5 0 13.7 1.6 13.7 1 0.1 2.6-0.3 3.5-0.8 1-0.5 3.8-3.5 6.2-6.8 2.4-3.2 5.3-6.4 6.3-7.1 0.9-0.7 1.8-2 1.8-3 0-1-1.9-3.1-4.2-4.7-2.4-1.6-5.4-4.1-6.6-5.5-1.3-1.4-4.6-5.6-7.5-9.3-2.9-3.8-5.9-6.8-6.8-6.8-0.8 0-2.4 0.7-3.5 1.4zm-214.3 6.5c-2.8 1.5-5.4 3.3-5.7 4.2-0.3 0.8 0.6 2.4 2 3.7 1.4 1.2 3.4 3.9 4.4 6 1.1 2.1 2.2 5.7 2.5 8q0.7 4.3 2.7 5.3c1.1 0.5 3.2 1 4.7 1 1.5 0 3.6-0.6 4.5-1.3 1-0.7 2.5-3.7 3.3-6.7 0.8-3.1 2.2-6.7 3.1-8 1.4-2.2 1.4-2.9 0.2-4.9-0.7-1.3-4-3.8-7.3-5.5-3.3-1.7-6.8-3.4-7.6-3.8-0.9-0.3-3.9 0.6-6.8 2zm162.7 1.2c-9.1 0.3-12.1 0.8-13.7 2.2-1.9 1.5-2 2.2-1.1 5 0.8 2.5 2.6 4.1 7.3 6.8 3.4 1.9 12 5.4 19.2 7.7 7.4 2.4 14.9 4.3 17.5 4.3 2.4 0 7.2-0.9 10.5-2.1 3.3-1.1 6.6-2.6 7.3-3.3 0.8-0.7 1.2-2.3 0.9-4.1-0.2-1.7-1.3-4.3-2.3-5.9-1.2-1.8-4.7-4.1-9.4-6.3-5.9-2.7-9.4-3.6-16-4.2-4.7-0.3-13.8-0.4-20.2-0.1zm93.3 1.6c-0.1 0.5 2 1.2 4.6 1.6 2.6 0.4 5 0.5 5.3 0.2 0.2-0.2 0.2-0.6 0-0.9-0.3-0.2-2.6-0.7-5.2-1.1-2.5-0.4-4.6-0.3-4.7 0.2zm-133.4 2.3c-2 1.1-4.6 2.1-5.7 2.1-1.1 0-3.7 0.9-5.8 2-2 1.2-4.3 2.9-5 3.8-0.7 0.9-1.3 3.1-1.3 4.9 0.1 2.8 0.6 3.5 3.8 4.8 2.1 0.9 7.6 1.9 12.3 2.2l8.5 0.5c0-16.1-0.5-21.1-1-21.5-0.6-0.4-1.3-0.7-1.5-0.7-0.3 0-2.2 0.8-4.3 1.9zm166.3 4.9c-2.5 2-6.8 4.6-9.5 5.6-2.8 1-5.7 2.4-6.5 3.1-1.3 1.1-1 1.6 2.5 3.3 2.2 1.1 7.1 4.3 11 7.1 3.9 2.9 7.8 5 8.9 4.8 1.1-0.1 2.6-1.4 3.3-2.7q1.2-2.6 0.7-9c-0.4-3.6-1.1-8.3-1.6-10.5-0.6-2.2-1.6-4.4-2.2-4.8-0.6-0.4-1.4-0.7-1.6-0.7-0.3 0.1-2.6 1.8-5 3.8zm-341.3 3.1c-1.5 0.9-3.3 2.6-4.2 3.6-0.8 1.1-1.5 3-1.5 4.2 0 1.2 0.5 2.5 1.2 2.9 0.7 0.3 2.3 0.3 3.5 0 1.3-0.4 2.2-1.4 2.2-2.4 0-1 0.7-2.3 1.5-3 0.9-0.7 2.2-1 3.1-0.7 0.8 0.2 1.9 2 2.5 4 0.8 3.1 1.3 3.5 4.3 3.5 1.8 0 3.6-0.3 4-0.5 0.4-0.3 0.1-1.9-0.6-3.5-1-2.5-1-3.3 0.3-4.6 0.8-0.8 2.1-1.3 3-1 0.8 0.3 2 2 2.7 3.8 0.7 1.8 1.2 4 1.3 5 0 1 0.3 1.9 0.7 2.1 0.4 0.3 5.2 0.7 10.5 1l9.8 0.7c0-3.9-0.4-5.8-0.9-6.8-0.5-1-2.6-2.9-4.7-4.2-2.2-1.3-6.6-3.1-9.9-3.8-3.3-0.8-10.6-1.6-16.1-1.7-8.1-0.2-10.6 0-12.7 1.4zm88.2 3.8c-3.3 3.1-4 4.3-3.8 6.8 0.3 2.7 0.7 3 4.4 3.3 2.2 0.1 4.9 0 6-0.2 1.7-0.5 2-1.4 2-7.1 0-6.2-0.1-6.5-2.2-6.5-1.3 0-4.2 1.6-6.4 3.7zm14.7 3.4c0.3 2.9 1.1 5.7 1.7 6.1 0.7 0.4 3 0.7 5.2 0.7 2.2 0 4.6-0.4 5.5-0.9 1.1-0.7 1.2-1.5 0.5-3.6-0.6-1.5-2.2-3.6-3.5-4.6-1.4-1-4.2-2.2-6.2-2.5l-3.7-0.6zm19.3 4.9c0 1.6 0.7 2 3.5 2 2.4 0 3.5-0.5 3.5-1.5 0-0.9-0.7-1.8-1.5-2-0.8-0.3-2.4-0.5-3.5-0.5q-2 0-2 2zm179 5.6c-1.5 0.9-2.4 2.4-2.3 3.5 0.2 1 1.2 2.1 2.3 2.4 1.1 0.2 3.2-0.2 4.7-0.9 1.6-0.8 3.1-2.1 3.5-3 0.5-0.9 0.8-2.1 0.8-2.6 0-0.6-1.5-1-3.3-1-1.7 0-4.3 0.8-5.7 1.6zm-382.5 2.4c-0.3 0.5 0.5 1.2 1.7 1.6 1.3 0.3 3.2 0.3 4.3-0.1 1.7-0.5 1.8-0.8 0.5-1.6-0.8-0.5-2.5-0.9-3.7-0.9-1.2 0-2.5 0.4-2.8 1zm398.8 0.7c-0.3 0.3-0.6 2.5-0.5 4.9 0.2 3.6 0.6 4.4 2.4 4.8 1.3 0.3 3.3 0.5 4.5 0.5 1.3 0 2.7-0.8 3.3-1.9 0.5-1.1 0.8-2.9 0.5-4-0.3-1.1-1.3-2.3-2.3-2.7-0.9-0.3-2.9-0.9-4.4-1.4-1.6-0.4-3.1-0.5-3.5-0.2zm-149.5 7.4c-1.6 0.6-2.1 1.5-2 3.6 0 1.5-0.1 6.8-0.2 11.8-0.2 4.9 0.2 14.4 0.9 21 0.7 6.6 1.6 19.2 1.9 28 0.4 8.8 1.1 18.7 1.6 22 0.5 3.3 1.6 10.2 2.4 15.5 0.8 5.2 1.9 16 2.5 24 0.6 7.9 1.3 17.8 1.5 22 0.2 4.1 1.3 14.4 2.4 23 1.1 8.5 2.7 19.5 3.6 24.5 0.9 4.9 2.3 12.3 3.1 16.5 0.8 4.1 1.5 9.3 1.5 11.5 0 2.2 0.4 5.5 1 7.5 0.7 2.5 0.6 4.7-0.5 8.5-0.7 2.7-2.4 5.9-3.7 7-1.3 1.2-4.3 2.7-6.8 3.4-2.5 0.8-12 1.6-21.2 2-11.7 0.4-17.1 0.9-18 1.9-1 0.9-1.2 4.9-1 16 0.1 8 0.6 17.6 1.1 21.2 0.5 3.5 1.4 7.8 2.1 9.5 0.6 1.6 1.5 5 1.9 7.5 0.5 2.4 2.1 8.5 3.6 13.5 1.5 4.9 3.1 10.3 3.5 12 0.5 1.6 1.5 5.7 2.4 9 0.9 3.3 2.7 8.4 4 11.5 1.3 3 3.7 8.6 5.4 12.5 1.7 3.8 3.3 7.9 3.6 9 0.4 1.1 3 5.3 5.9 9.4 2.8 4.1 6.3 8.3 7.7 9.3 2 1.5 4 1.9 10 1.8 4.1 0 10.1-0.6 13.3-1.3 5.6-1.2 5.7-1.3 5.2-4.2-0.3-1.7-0.6-8-0.7-14-0.2-6.1 0.1-14.5 0.5-18.8 0.4-4.3 2.2-13.9 4.2-21.5 1.9-7.6 5-20.5 7-28.7 1.9-8.3 4-17.3 4.6-20 0.6-2.8 1.5-6.3 2-7.8 0.5-1.5 1.3-4 1.9-5.5 0.5-1.5 1.9-6.1 3-10.2 1.1-4.2 2.5-9.1 3-11 0.4-2 1.5-6.8 2.4-10.8 0.9-4 2.3-10.5 3.2-14.5 0.9-4 2.8-9.7 4.2-12.7 1.6-3.5 3-8.7 3.6-14 0.7-6.1 0.6-11.2-0.2-18-0.7-5.3-1.2-10.9-1.2-12.5 0-1.7-0.5-4.7-1-6.8-0.9-3.2-2-4.3-8-7.7-3.9-2.2-8.1-5.5-9.4-7.3-1.3-1.8-3.4-5.3-4.7-7.7l-2.3-4.5c2.6-19.4 4.2-27.7 5.3-31 1.1-3.3 2.9-9.2 4-13 1.1-3.9 2.5-10.3 3-14.3 0.6-4 1.5-8 2-9 0.5-1 2.4-7.8 4.2-15.2 1.7-7.5 3.7-16.7 4.2-20.5 0.6-3.9 1.1-10.9 1.1-15.5l0.1-8.5c-11.6-1-16.4-1.8-18-2.5-1.7-0.6-6.2-1.8-10-2.6-3.9-0.8-11.1-1.4-16-1.5-5 0-11.7-0.4-15-1-3.3-0.6-7.7-1.4-9.7-1.8-2.1-0.5-4.7-0.4-6 0zm221.8 0.9c-1.3 0.7-1.9 2-1.8 4 0.1 1.8 1.1 3.5 2.4 4.5 1.3 0.8 3.2 1.5 4.3 1.4 1.1 0 4.7 1 8 2.1 3.3 1.1 9.8 3 14.5 4.1 4.7 1.2 10.5 3.1 13 4.4 2.5 1.3 7.2 3.4 10.5 4.6 3.3 1.2 10.5 4.2 16 6.6 5.5 2.5 11.5 5.6 13.3 7.1 2.3 1.9 3.3 3.5 3.2 5.4 0 1.7-0.7 2.9-1.8 3.2-0.9 0.3-3.3 0.1-5.2-0.5-1.9-0.5-4.2-1.7-5-2.4-0.8-0.8-4-2.1-7-2.9-3-0.9-10.7-1.8-17-2.2-10-0.7-12.2-0.5-16.7 1.1l-5.3 2c-8.1-3.5-12.3-4.5-14.5-4.5-2.2 0-5.6-0.5-7.5-1.1-1.9-0.5-6-1.2-9-1.5-3-0.3-11.6-1-19-1.6-10.2-0.9-16.1-0.9-24 0-5.8 0.6-12.3 1.2-14.5 1.2-2.2 0-4.7 0.4-5.5 0.9-1.3 0.8-1.2 1.3 0.7 3 1.3 1.1 2.3 2.3 2.3 2.6 0 0.2-1 1.3-2.3 2.4-1.2 1.1-1.8 2.4-1.4 2.8 0.5 0.4 21.4 0.9 46.5 1 27.6 0.2 46.9 0.7 48.7 1.4 1.6 0.5 6.6 1.3 11 1.8 4.6 0.5 9.8 1.7 12.2 2.9 2.4 1.2 5.9 3.8 7.9 5.9 1.9 2.1 5 6.2 6.7 9.2 1.8 3 4.9 6.8 7 8.5 2.1 1.7 4.9 4.6 6.3 6.6 1.9 2.6 2.4 4.5 2.2 7.9-0.3 3.6-0.7 4.6-2.3 4.9-1.4 0.2-4.6-2.4-11-9.1-5-5.2-11.3-10.8-14-12.5-2.8-1.8-7.5-3.7-10.5-4.3-3-0.5-8.8-2.4-12.8-4-6-2.4-8.6-3-15.5-3-4.5 0-13.6-0.5-20.2-1.1-6.6-0.6-12.9-1.1-14-1.1-1.1 0.1-3.1 0.2-4.5 0.3-1.4 0.1-6.1-0.3-10.5-0.9-4.4-0.6-12.7-1.7-18.5-2.5-5.8-0.8-11.8-1.1-13.4-0.8-1.6 0.4-3.2 1.2-3.7 1.9-0.5 0.7-0.7 2.5-0.4 4 0.3 1.5 1.4 3.3 2.5 4 1.1 0.7 4.4 2.1 7.2 3.2 2.9 1 9.3 2.6 14.3 3.5 7.8 1.5 9.8 1.5 15 0.3 4.3-0.9 9.4-1.1 18.5-0.6 6.9 0.4 15.2 1.2 18.5 1.8 3.3 0.6 10 1.5 15 2.1 4.9 0.5 11.2 1.4 14 1.9 2.7 0.4 7.7 1.8 11 2.9 3.3 1.1 7.8 3 10 4.1 2.2 1.2 7.5 5.6 11.7 9.8 4.2 4.3 7.4 8.2 7 8.6-0.4 0.5-2.5 0.6-4.7 0.2-2.2-0.3-5.8-1.8-8-3.3-2.2-1.5-5.8-3.5-8-4.5-2.2-1.1-4.8-2.6-5.9-3.6-1.2-1.1-4.5-1.9-10.5-2.3-4.7-0.4-10.6-1.2-13.1-1.7-2.5-0.6-9.5-1.5-15.5-2.1-6.1-0.7-16.1-1.2-22.4-1.2-6.2 0-11.8 0.4-12.3 0.8-0.5 0.5-0.1 1.6 0.9 2.6 1.1 1 4.8 2.1 9.8 2.8 4.4 0.6 10.5 1.7 13.5 2.5 3 0.9 9.8 3.2 15 5.2 5.2 2 11.4 4.9 13.7 6.4 2.4 1.6 4.9 2.8 5.5 2.8 0.7 0 1.7 0.4 2.3 0.9 0.5 0.5 2.7 1.9 4.7 3.1 2.1 1.1 4.4 2.1 5 2.1 0.7 0 5.1 2.7 9.8 6 5 3.5 12.5 10.4 18.4 16.7 5.4 5.9 10.8 12.1 11.9 13.8 1.2 1.6 3.5 4.3 5.2 6 1.6 1.6 6.4 6.8 10.5 11.4 4.1 4.6 10.5 11.4 14.1 15 3.7 3.6 10.4 10 15 14.1 4.6 4.2 10.9 9.4 13.9 11.7 3 2.2 14 9 24.5 15 10.4 6 21.7 12.5 25 14.5 3.3 2 9.5 6.5 13.7 10 4.3 3.4 10.2 7.6 13.2 9.3 3 1.6 6.4 3.9 7.7 5.1 1.3 1.2 10.5 6.3 20.4 11.4 9.9 5.1 19.2 10.1 20.7 11.1 1.6 1 3 1.9 3.3 1.9 0.3 0 4.4 2.3 9.2 5.1 4.9 2.8 11.7 7 15.3 9.3 3.6 2.4 14.4 9.1 24 15 9.6 6 29.6 16.8 44.5 24.1 19.5 9.6 29.4 13.9 35.5 15.4 4.7 1.2 9.4 2.6 10.5 3.1 1.1 0.5 4.5 1.9 7.5 3 3 1.2 8 3 11 4 3 1 8.6 2.7 12.5 3.8 3.8 1.1 11 2.5 16 3.1 4.9 0.6 12.8 1.6 17.5 2.1 4.7 0.5 9.2 1.2 10 1.5 0.8 0.3 7.6 1.4 15 2.5 7.4 1 17.8 2.4 23 2.9 5.2 0.6 11.7 1.6 14.5 2.2 2.7 0.6 9.5 2.7 15 4.7 7.7 2.7 12 3.6 19 4l9 0.4c14.5-9.6 15.5-10.6 15.5-13.2q0-3 2-4c1.4-0.8 2-2 2-4.5 0-2.2 1.6-6.6 4-11.3 2.2-4.3 4-8.6 4-9.7 0-1.1 1.3-7.4 3-14 1.6-6.6 3-12.9 3-14 0-1.1 0.9-5 1.9-8.5 1.1-3.6 2.5-9 3.1-12 0.5-3.1 1.7-12.3 2.6-20.5 0.9-8.3 1.9-18.6 2.3-23 0.4-4.4 0.9-8.5 1.1-9 0.2-0.6 0-2.2-0.3-3.5-0.3-1.4-0.8-10-1.1-19-0.3-9.1-1-20.1-1.6-24.5-0.6-4.4-1.7-11.4-2.5-15.5-0.8-4.2-2-14.3-2.6-22.5-0.5-8.3-1.3-16.8-1.7-19-0.6-3.4-1.3-4.3-4.7-6-2.6-1.3-6.8-2.1-12-2.4-4.4-0.2-13 0.2-19 0.8-6.1 0.7-15.3 1.9-20.5 2.7-5.2 0.8-14 2.1-19.5 2.8-5.5 0.8-14.5 2.3-20 3.4-5.5 1.1-13.6 2.3-18 2.6-4.4 0.4-10.5 1.1-13.5 1.6-3 0.6-8.4 1.8-12 2.6-3.6 0.9-13.5 3.6-22 6-12.7 3.6-15.9 4.8-17.9 7.1-2.1 2.5-2.3 3.5-2 11.3 0.3 6.5 0.9 9.2 2.4 11.4l2 2.9c24.8-1.3 34.9-1.7 38.5-1.8 3.6-0.1 10.8-0.8 16-1.4 5.2-0.7 18.3-1.2 29-1.2 10.7 0 24.2 0.5 30 1 5.8 0.6 12.6 1.3 15.2 1.6 4.1 0.4 5 0.9 6.3 3.5 1.3 2.6 1.3 3.3 0 6-0.8 1.6-2.4 3.4-3.5 4-1.5 0.7-3.8 0.4-8.8-1.3-6.2-2.1-8.5-2.3-32.7-2.3-14.8-0.1-32.9 0.5-42 1.3-8.8 0.8-16.2 1.6-16.5 1.8-0.3 0.1-8.4 1-18 1.9-14.2 1.3-20.5 1.4-33.5 0.5-8.8-0.5-17.8-1.4-20-1.8-2.2-0.5-6.3-1.4-9-2.1-2.8-0.7-10.2-2.6-16.5-4.3-10.7-2.9-13.2-3.1-35.5-3.8-13.2-0.5-26.9-1.3-30.5-1.9-3.6-0.6-8.6-1-11.3-1-2.6 0-8.9-1-14-2.2-5-1.1-13.9-3.4-19.7-5-5.8-1.6-11.2-3.5-12-4.2-0.8-0.8-4.4-3.1-8-5.2-3.6-2.1-9.7-5.6-13.5-7.7-3.9-2.2-10.4-5.8-14.5-8-4.1-2.2-10.2-5.9-13.5-8.2-3.3-2.4-8.7-6.8-12-10-3.3-3.1-7.1-6.3-8.5-7.1-1.4-0.7-5-3.9-8-7.1-3-3.1-7.4-8.2-9.8-11.3-2.3-3-4.2-5.9-4.2-6.3 0-0.4-2.6-3.6-5.7-7-3.1-3.4-7.2-8.7-9.2-11.8-2-3-5-7.2-6.6-9.4-1.7-2.1-5.3-6.4-8-9.6-2.8-3.2-6.4-7.7-8.1-10.1-1.8-2.4-6.2-10.4-9.8-17.8-4.9-10-7.8-14.8-11.4-18.2-2.6-2.6-7.4-6.1-10.7-7.9-3.3-1.8-7.6-3.6-9.5-4-1.9-0.4-6.2-1.5-9.5-2.4-3.3-0.9-10.5-2.8-16-4.1-5.5-1.4-11.8-3-14-3.6-2.2-0.6-5.6-1.7-7.5-2.3-1.9-0.7-7.6-1.6-12.5-2-5-0.3-10.6-0.8-12.5-1.1-1.9-0.2-4.4 0-5.4 0.6zm-460.1 15.5c-0.3 0.8 0.2 2.6 1 4 0.8 1.3 1.9 2.5 2.5 2.5 0.5 0 2.6-0.7 4.5-1.5 1.9-0.9 3.5-2.1 3.5-2.8 0-0.7-0.5-1.8-1.2-2.5-0.7-0.7-3.2-1.3-5.6-1.3-2.9 0-4.4 0.5-4.7 1.6zm327.5 146.7c0 1.8 0.9 8.2 2.1 14.3 1.1 6 2.3 16.1 2.6 22.5 0.5 10.2 0.3 12.6-2.1 22-1.4 5.7-4.4 15.6-6.7 22-2.3 6.3-5.2 15.1-6.6 19.5-1.3 4.4-2.9 8.9-3.4 10-0.5 1.1-2.3 6.7-4 12.5-1.7 5.7-4.3 15.2-5.9 21-1.5 5.7-3.3 13.4-3.9 17-0.7 3.5-1.5 7.4-1.8 8.5-0.2 1.1-0.9 5.1-1.3 9-0.5 3.8-1.6 13.5-2.3 21.5-0.8 7.9-1.3 18.5-1.1 23.5 0.2 5.4 0.9 9.4 1.6 10.2 0.7 0.7 4 1.7 7.3 2.2 3.3 0.4 7.8 1.6 10 2.5 2.2 1 6.9 2.6 10.5 3.8 3.6 1.1 7.4 2.6 8.5 3.3 1.1 0.7 3.8 1.7 6 2.1 2.2 0.4 5.6 1.9 7.6 3.3 2 1.4 5.6 4.8 8.1 7.6 3 3.3 5 6.8 6.1 10.7 1.1 3.6 2.4 6.1 3.7 6.8 1.1 0.5 5.1 1.5 9 2.2 5.7 1 7.2 1 8.2-0.1 0.7-0.7 3.2-6.1 5.5-12 2.3-5.8 5.8-16.7 7.7-24.1 1.9-7.5 4.1-16.9 4.9-21 0.9-4.2 2-10 2.5-13 0.5-3.3 0.6-8.9 0.1-13.8-0.5-4.5-1.6-9.9-2.4-12-0.8-2.1-2.1-6.7-2.9-10.2-0.8-3.6-2.3-11-3.2-16.5-0.9-5.5-1.8-10.5-2-11-0.2-0.6-1.1-5.5-2-11-0.9-5.5-2-13.9-2.5-18.5-0.4-4.7-1.4-13-2.3-18.5-0.8-5.5-2.1-12.3-2.9-15-0.8-2.8-1.8-8.2-2.1-12-0.4-3.9-1.3-10.2-2-14-0.8-3.9-2.2-11.3-3.1-16.5-1.1-6.2-1.6-13.1-1.4-19.5l0.4-9.9c-10.1-2.1-15.3-3.4-18-4.3-2.8-0.9-8.9-3.1-13.8-5-4.8-1.8-9.6-3.3-10.7-3.3-1.6 0-2 0.6-2 3.2zm-154.5 93.4c-6.1 1.4-12.8 2.9-15 3.3-2.2 0.5-9.2 1.8-15.5 2.9-6.3 1.1-13 2.4-14.9 2.9-1.8 0.4-3.7 1.2-4.1 1.8-0.4 0.5-1.5 3.4-2.4 6.5-0.8 3-2 8.4-2.4 12-0.8 5.4-0.6 8 1.3 16 1.2 5.2 2.6 11.3 2.9 13.5 0.4 2.2 1.1 5.3 1.6 7 0.5 1.6 1.6 6.2 2.4 10.2 0.9 4 1.3 8.7 1 10.5-0.3 1.8 0.2 6.4 1.1 10.3 0.9 3.8 2 12.1 2.3 18.4l0.7 11.4c9.3 1.9 16.3 3 21.5 3.6 5.2 0.7 14 1.9 19.5 2.7 5.5 0.8 12 2.4 14.5 3.5 2.5 1 5.6 1.9 7 1.9 1.4-0.1 4.5 0.6 7 1.3 2.5 0.8 8.8 2 14 2.6 5.2 0.7 10.9 1.3 12.7 1.4 1.8 0.1 3.7-0.3 4.2-0.8 0.8-0.7-0.4-3.3-3.5-8-2.6-3.9-7.1-12.2-10.1-18.5-3-6.4-6.8-15.4-8.4-20-1.6-4.7-4.2-12.4-5.8-17-1.6-4.7-4.1-13-5.4-18.5-1.4-5.5-3.1-13.9-3.7-18.5-0.7-4.7-1.6-9.7-2.2-11-0.5-1.4-0.9-7.3-0.9-13 0.1-5.8-0.1-12.6-0.3-15-0.3-2.5-0.5-4.9-0.6-5.3 0-0.4-1.7-0.7-3.8-0.7-2 0.1-8.7 1.3-14.7 2.6zm-66.9 90.1c-0.2 0.4-2.1 6.2-4.1 12.8-2 6.6-3.7 12.8-3.8 13.8-0.2 1.5 0.9 2.2 4.8 3.2 2.7 0.8 6.2 1.4 7.7 1.4 2.7 0 2.8-0.1 2.2-3.7-0.4-2.1-0.8-5.1-1-6.7-0.2-1.7-0.8-5.5-1.4-8.5-0.6-3.1-1.2-7.2-1.5-9.3-0.3-2.1-0.9-3.7-1.5-3.7-0.5 0-1.1 0.3-1.4 0.7zm-19.3 58.4c-0.6 0.7-4.5 8.3-8.7 16.9-4.1 8.5-8.4 16.6-9.4 18-1.1 1.3-3.4 5.4-5.2 9-1.9 3.5-4.7 8.2-6.4 10.4-1.9 2.4-5.1 4.8-8.1 6.1-2.8 1.2-7.7 2.5-11 2.9-3.3 0.4-11.6 1.1-18.5 1.7-6.9 0.5-13 0.9-13.5 0.9-0.6 0-6.9-0.2-14-0.5-7.2-0.3-16.5-0.1-20.8 0.5-5.4 0.7-9 0.6-12-0.1-2.3-0.7-6.7-1.6-9.7-2.1-3-0.5-8.7-1.4-12.5-2-3.9-0.5-11.1-1.3-16-1.7-6.8-0.5-10.5-1.4-15-3.6-3.3-1.5-7.8-3.7-10-4.8-3-1.5-7.7-2.3-18.5-3.2-8-0.7-15.3-1-16.3-0.6-1 0.3-1.9 1-2.1 1.6-0.2 0.5 0.2 4.1 0.7 8 0.8 5.4 0.7 8.4-0.4 13.4-0.8 3.5-2.4 7.8-3.6 9.5-1.2 1.7-2 3.6-1.8 4.3 0.3 0.8 3 1.3 7.7 1.4 4 0.1 10.2 0 13.8-0.1 3.6 0 9.6 0.4 13.5 1 3.8 0.6 12.2 1.5 18.5 2 6.3 0.4 15.3 1.1 20 1.5 4.9 0.4 10.1 1.5 12.2 2.6 2.1 1 5.4 3.3 7.4 5.1 2 1.8 5.4 6 7.7 9.3 2.2 3.3 4.9 8 5.9 10.5 1.1 2.4 2.6 6.5 3.4 9 0.7 2.4 1.6 7.4 1.9 11 0.3 3.5 1.1 8.7 1.7 11.5 0.8 3.6 0.7 7.9-0.1 16-0.7 6-1.9 13.7-2.7 17-0.8 3.3-3 13.6-5 23-1.9 9.3-3.7 17.2-4 17.5-0.2 0.2 0.1 1.2 0.6 2.2 0.6 1 2.9 2.6 5.2 3.6 2.4 1 9 2.8 14.8 4.1 5.8 1.2 14.5 3.5 19.5 5 4.9 1.6 10.6 3.2 12.5 3.5 1.9 0.4 5.4 1.4 7.7 2.1 2.4 0.8 6.2 1.5 8.5 1.5 2.4 0 5.4 0.7 6.8 1.5 1.4 0.7 3.6 1.4 5 1.4 1.4 0 5.6 0.8 9.5 1.7 3.8 0.9 9.9 2.4 13.5 3.4 3.6 1.1 8.3 2.3 10.5 2.8 2.2 0.5 6.7 1.3 10 1.6 3.3 0.4 10 1.7 15 3 4.9 1.3 11.9 2.8 15.5 3.4 3.6 0.6 8.7 1.4 11.5 1.7 2.7 0.4 6.3 0.9 8 1 1.6 0.2 4.6 0.8 6.5 1.3 1.9 0.6 5.3 1.4 7.5 2 2.2 0.5 6.9 1.3 10.5 1.6 3.6 0.4 10.1 1.3 14.5 2.2 4.4 0.8 12.9 2.1 19 3 6 0.9 15.5 2 21 2.4 5.5 0.4 16.7 1.2 25 1.8 8.2 0.6 17.2 1.4 20 1.7 2.7 0.3 8.1 0.8 12 1 3.8 0.2 8.6 0.9 10.5 1.5 1.9 0.6 12.5 1.4 23.5 1.9 11 0.5 20.7 1.1 21.5 1.5 0.8 0.3 10.7 1 22 1.6 11.3 0.6 25.9 1.4 32.5 1.9 6.7 0.4 18.6 0.4 27-0.1 8.2-0.5 19-1.8 24-2.8 4.9-1.1 14.6-2.2 21.5-2.5 6.9-0.3 13.4-0.6 14.5-0.6 1.1 0 4.9-0.7 8.5-1.5 3.6-0.9 7.8-2.1 9.5-2.6 1.6-0.6 4.8-1.9 7-3 2.2-1 5.1-1.8 6.5-1.9 1.4 0 3.6-0.7 5-1.4 1.4-0.8 3.7-1.5 5.2-1.5 1.6 0 5.2-1.1 8-2.4 2.9-1.3 8-4.4 11.3-6.9 3.3-2.5 12.6-11.3 20.6-19.4 8.1-8.2 17.2-18.2 20.3-22.3 3.1-4.2 6.7-9.8 8-12.5 1.3-2.8 3.2-6.8 4.2-9 1.4-3.1 1.8-6.3 1.7-13.5-0.1-5.3-0.9-12.5-1.7-16-0.9-3.6-1.6-7.9-1.6-9.5 0-1.7-1.1-4.6-2.6-6.5-1.4-2-3.6-5.6-4.9-8-1.3-2.5-3.5-5.9-4.9-7.5-1.4-1.7-4.4-5.4-6.8-8.3-2.4-3-6.8-7.3-9.8-9.7-3-2.3-8.4-5.5-12-7-3.6-1.5-7-3.1-7.5-3.6-0.6-0.5-3.7-1.8-7-2.9-3.3-1.2-8.6-3.4-11.8-4.8-4.6-2.2-6-2.5-7-1.5-1 1-0.7 1.8 1 4 1.3 1.5 4 5 6.1 7.8 2.1 2.7 4.3 6.5 4.8 8.5 0.8 2.5 0.8 5.1-0.1 9.5-0.7 3.3-2.1 8-3.1 10.5-1 2.4-2.9 6.3-4.2 8.5-1.4 2.2-4.4 6.4-6.8 9.5-2.3 3-5.7 7-7.5 9-1.7 1.9-4.4 5.3-5.9 7.5-1.5 2.2-7.1 7.8-12.4 12.5-5.3 4.6-12.9 12.2-16.9 16.8-4 4.5-9.9 10.6-13.2 13.5-3.3 2.9-8.4 6.9-11.3 8.9-2.8 2.1-7.1 4.6-9.5 5.7-2.3 1.1-7.4 2.9-11.2 4-3.9 1.2-8.9 2.1-11.3 2.1-2.3 0-5.7-0.7-7.5-1.4-1.7-0.7-4.6-2.5-6.2-3.8-1.7-1.4-4.5-3.1-6.3-3.7-1.8-0.7-8-5.9-14.5-12.5-6.1-6.2-14.8-15.4-19.2-20.5-4.4-5.1-8.3-9.2-8.8-9.2-0.4 0-0.7 0.6-0.7 1.3 0 0.7 2.1 5.3 4.6 10.3 2.6 4.9 6.1 10.8 7.9 13 2.2 2.6 3.9 6.3 5 11 1.5 6 1.6 7.9 0.6 14-0.8 4.4-2.3 8.9-4.4 12.3-1.8 2.9-4.8 6.6-6.7 8.2-1.9 1.5-6.9 4.4-11 6.3-6.4 3.1-9.8 3.9-23 5.7-11.3 1.5-21.5 2.2-37.5 2.3-12.1 0.1-25.8-0.1-30.5-0.5-4.7-0.3-9.4-1-10.5-1.6-1.1-0.5-3.5-1.3-5.3-1.6-1.7-0.4-5.4-2.1-8.1-3.9-2.7-1.8-7-5.3-9.7-7.7-2.6-2.5-5.8-6.8-7.1-9.5-1.9-4.2-2.3-6.7-2.3-14.8 0-5.4 0.6-13 1.4-17 0.8-4 3.3-12.9 5.6-19.7 2.3-6.9 4.7-13.7 5.5-15 0.7-1.4 2.2-5.2 3.4-8.5 1.2-3.3 2.1-7.3 2.1-8.8 0-1.8-0.5-2.7-1.5-2.7-0.8 0-3.2 1.6-5.2 3.7-2 2.1-4.9 4.7-6.4 5.8-1.5 1.1-4.8 3.5-7.5 5.5-2.6 1.9-9.7 7.9-15.8 13.3-6.1 5.4-13.4 11-16.1 12.5-2.8 1.5-8.3 3.9-12.3 5.4-5.1 2-9.1 2.8-13.7 2.8-3.7 0-11-1.2-16.8-2.6-5.6-1.4-12.7-4-15.7-5.7-3-1.7-9.4-6.7-14.1-11.2-4.7-4.4-11.2-10.3-14.5-13-3.3-2.8-8.9-8.2-12.4-12-3.5-3.9-7.5-8.9-8.9-11.1-1.4-2.3-4.8-6.6-7.5-9.5-2.7-3-5.8-7.5-6.8-9.9-1.1-2.5-2.4-8.4-3-13-1-7.4-0.9-9.3 0.6-14 1-3.1 2.9-7.3 4.4-9.5 1.4-2.2 4.4-6 6.6-8.4 2.3-2.4 5.9-5.7 8.1-7.2 2.2-1.5 6.9-3.7 10.5-4.8 4.5-1.4 8.9-2 14.5-1.8 4.4 0.1 8.6-0.2 9.2-0.6 0.9-0.5-0.5-2.6-4.7-7-3.3-3.4-7.4-8.5-9.1-11.2-2.1-3.3-3.3-6.5-3.4-9-0.1-2.2 0.4-5.8 1.2-8 0.7-2.2 3.2-6.8 5.6-10.3 2.3-3.4 5.3-6.8 6.7-7.6 1.4-0.8 3.4-2.3 4.5-3.4 1.1-1 2.9-2.4 4-3 1.1-0.5 4-2.7 6.5-4.7 2.5-2.1 6.4-4.6 8.7-5.7q4.3-1.8 4-3.5c-0.1-1.2-2.1-2.1-6.2-3.1-3.3-0.8-9.6-1.6-14-1.9-6.1-0.4-8.4-0.2-9.2 0.8zm172.7 7.3c-2.8 0.9-4.8 2.2-5.3 3.5-0.4 1.1-2.3 3-4.2 4.1-1.9 1.1-3.5 2.6-3.5 3.5 0 1.2 1.7 1.4 12.2 0.8 6.8-0.3 18-0.1 25 0.5 9.5 0.9 15.2 2 22 4.3 5.1 1.7 10.9 3.9 12.8 5 1.9 1 4.1 1.9 4.7 1.9 0.7 0 3.2 1.5 5.5 3.4 2.4 1.9 5.6 4.6 7.3 6 1.6 1.3 3.8 2.5 4.7 2.5 1 0 1.8-0.6 1.8-1.4 0-0.9-0.9-3.2-1.9-5.3-1.1-2.1-3.4-5.1-5.3-6.9-1.8-1.7-6.7-5.6-10.8-8.7-4.1-3.2-8.6-6-10-6.3-1.4-0.3-3.4-0.9-4.5-1.4-1.1-0.4-3.1-1-4.5-1.3-1.4-0.3-5.9-1.5-10-2.6-5-1.4-11.5-2.3-19.5-2.6-8.7-0.3-13.2-0.1-16.5 1zm146.5 8.3c-0.9 3.2-2.5 8.7-3.6 12.3-1 3.5-1.9 6.9-2 7.5 0 0.5 1.3 1.5 2.8 2.2 1.5 0.7 4.1 1.3 5.8 1.4 1.6 0.2 3.6-0.1 4.2-0.4 0.7-0.4 1.3-2.5 1.3-4.7 0-2.2-0.5-6.2-1.1-8.8-0.6-2.6-1.7-7.1-2.4-10-0.7-2.9-1.8-5.2-2.3-5.2-0.6 0-1.8 2.5-2.7 5.7zm-260.5-1.4c-4.7 1.8-10.5 4.5-13 5.9-2.5 1.5-5.2 2.7-6 2.7-0.8 0-3.7 1.2-6.3 2.8-2.6 1.5-6.4 3.7-8.4 4.8-2 1.1-4.1 2.7-4.7 3.7-0.6 0.9-0.9 1.9-0.6 2.1 0.3 0.3 2.1 1.2 4 2 3.1 1.3 4.1 1.2 9-0.3 3-1 9.1-3.6 13.5-5.8 4.4-2.2 11.8-5.2 16.5-6.7 4.7-1.5 10.3-3.1 12.5-3.6 2.2-0.5 6.9-1.5 10.5-2.4 3.6-0.8 8.5-1.5 11-1.5 2.5-0.1 5.1-0.4 5.8-0.8q1.2-0.7-2.5-2.4c-2.1-0.9-7.1-2.1-11.1-2.7-3.9-0.6-10.5-1.1-14.5-1.1-5.7 0-9 0.7-15.7 3.3zm68 3.3c-0.8 0.3-1.3 1-1.3 1.7 0.1 0.6 2.6 3.7 5.5 6.9 2.9 3.1 5.9 5.7 6.5 5.7 0.7 0 1.5-0.6 1.8-1.4 0.3-0.9 0.5-3.2 0.5-5.3 0-2.1-0.4-4.2-0.8-4.8-0.4-0.6-2.8-1.6-5.5-2.3-2.6-0.6-4.8-1.1-5-1.1-0.1 0.1-0.9 0.3-1.7 0.6zm-34.1 18.1c0.1 0.4 2.3 2.4 5.1 4.5 3.6 2.7 5.9 5.5 8.1 10 2.8 5.6 3.1 6.9 2.5 12-0.3 3.2-1.4 7.1-2.4 8.8-0.9 1.6-2.8 3.5-4.2 4.1-1.4 0.7-4.3 1.5-6.4 1.8-2.2 0.3-4.1 1.1-4.3 1.8-0.2 0.7 1 1.9 2.7 2.8 1.6 0.8 4.1 1.5 5.5 1.5 1.6 0 2.9-0.9 3.7-2.3 0.6-1.2 4.1-5.3 7.7-9.1 3.6-3.8 8.3-7.7 10.3-8.7 2.1-1.1 4.8-1.9 6-1.9 1.3 0 3.3-0.7 4.5-1.5 1.3-0.9 2.3-2.3 2.3-3.3-0.1-1-2.6-5.1-5.8-9.1-3.1-4.1-6.6-8-7.7-8.8-1.1-0.7-3.6-1.5-5.5-1.8-1.9-0.3-7.7-0.8-12.8-1-5.1-0.3-9.3-0.2-9.3 0.2zm73.1 5.1c-2.4 0.5-3.6 1.3-3.8 2.7-0.2 1.1 0.5 4 1.7 6.5 1.1 2.4 2.9 6.7 3.9 9.5 1 2.9 2.4 5 3.2 5 1.1 0 1.7-1.8 2.1-7 0.4-3.9 1.2-9 1.8-11.3 0.6-2.3 0.9-4.7 0.6-5.2-0.3-0.6-1.7-1-3.3-0.9-1.5 0.1-4.3 0.4-6.2 0.7zm-112 5.8c-5.8 1.9-10.8 4-11.2 4.7-0.3 0.6-0.4 1.6-0.2 2.2 0.2 0.5 2.3 2.2 4.7 3.6 2.3 1.5 7.5 4.6 11.4 6.8 4.1 2.2 7.5 3.6 7.8 3.1 0.3-0.6 0.2-3-0.2-5.3-0.3-2.3-0.6-6-0.5-8.2 0.1-2.2 0.6-4.5 1.2-5 0.6-0.6 1-2.1 1-3.3 0-1.5-0.6-2.2-1.8-2.2-0.9 0-6.4 1.6-12.2 3.6zm139.2-1c-0.7 0.3-2.4 2.3-3.7 4.5-1.9 2.9-2.3 4.4-1.6 6.1 0.5 1.4 2.3 2.7 4.7 3.5 2.1 0.7 4.8 1.2 5.9 1.2 1.1 0 3.2-1.2 4.8-2.7 1.5-1.5 2.7-3.8 2.7-5 0-1.5-0.6-2.2-1.8-2.3-0.9 0-2.3 0.9-3 2-0.6 1.2-1.8 2.1-2.5 2.1-0.6 0-1.8-0.5-2.5-1.3-1-1-0.8-1.6 0.8-3.2 1.1-1.1 2-2.6 2-3.3 0-0.7-0.7-1.5-1.5-1.7-0.8-0.3-1.8-0.5-2.3-0.5-0.4 0.1-1.3 0.3-2 0.6zm-109.6 5.6c-3.1 1.7-3.9 2.7-3.8 4.7 0.1 1.4 1.3 3.7 2.7 5.1 2.3 2.2 3 2.4 6.8 1.6 2.3-0.4 4.8-1.3 5.5-2 0.7-0.6 1.3-1.9 1.2-2.9 0-1-0.8-1.9-1.8-2.2-0.9-0.2-2.4-1.8-3.2-3.5-0.8-1.7-2-3.1-2.5-3.1-0.6 0.1-2.8 1.1-4.9 2.3zm139.9 2.4c-0.5 0.4-0.8 1.8-0.7 3.3 0.2 1.4-0.7 4.8-1.9 7.6-1.2 2.7-3.3 6.8-4.7 9-1.8 3-2.3 4.8-1.8 7.2 0.3 1.8 1.2 3.4 1.8 3.6 0.7 0.2 4.6-2.9 8.7-6.8 4.1-3.9 9.4-9 11.8-11.3 2.6-2.6 4-4.7 3.5-5.5-0.4-0.6-4-2.6-8-4.5-3.9-1.8-7.4-3.2-7.5-3.2-0.2 0-0.8 0.3-1.2 0.6zm-523.5 2.6c-0.9 0.7-1.3 2.8-1.2 5.2 0.1 2.2 0.9 5.1 1.7 6.3 0.8 1.2 2.4 2.3 3.5 2.3 1.6 0 1.9-0.5 1.2-2.3-0.4-1.2-0.6-4.6-0.6-7.5 0.2-4.3-0.1-5.2-1.5-5.2-0.9 0-2.3 0.5-3.1 1.2zm32.2 2.8c-4.3 1.6-5.2 2.3-5 4.2 0.2 1.6 1.4 2.5 4.8 3.5 3.9 1.1 5.3 1 10-0.4 3-1 6.1-2.2 6.8-2.8 0.7-0.6 1.3-1.4 1.2-1.8 0-0.4-1.5-1.6-3.3-2.7-1.7-1.1-4.6-2-6.2-2-1.7 0-5.4 0.9-8.3 2zm531.9 9.2c-1.7 2.3-2.8 4.6-2.6 5 0.3 0.4 6.8 0.8 14.5 0.8 7.7 0 17.3 0.4 21.2 0.9 4 0.5 9.7 1.2 12.5 1.5 3.3 0.3 5.3 0.2 5.3-0.4 0-0.6-1.7-1.5-3.8-2-2-0.5-8.2-2.1-13.7-3.6-5.5-1.5-11.8-3.6-14-4.6-2.5-1.1-6.4-1.8-10.2-1.8-6.1 0-6.2 0-9.2 4.2zm-130.4 6.9c-2 0.4-5.2 1.6-7 2.5-1.7 0.9-5.1 2.9-7.5 4.5-3.7 2.5-4.2 3.3-4 6.1 0.3 2.9 0.7 3.3 3.5 3.5 2.6 0.2 3.3-0.1 3.2-1.5 0-1 0.7-2.4 1.6-3.2 1.4-1.4 1.8-1.3 3.6 0.5 1.5 1.5 1.9 2.7 1.4 5-0.6 2.8-0.3 3.1 5.2 5.6 3.2 1.5 7.8 3.2 10.3 3.8 2.5 0.5 6.4 1 8.7 1 3.2 0 4.4-0.4 4.8-1.7 0.3-1-1.1-5.1-3.2-9.2-2.1-4.1-4.8-9.4-6.1-11.8-1.2-2.3-2.5-4.4-3-4.6-0.4-0.2-2.3-0.6-4.2-0.9-1.9-0.3-5.2-0.1-7.3 0.4zm51 5.5c-2.1 0.2-3.7 0.9-3.7 1.6 0 0.7 1.1 3.5 2.3 6.3 1.3 2.7 3.5 5.6 5 6.5 2.4 1.4 2.8 1.3 6.1-1.3 2.5-1.9 3.6-3.6 3.6-5.5 0.1-1.5-0.7-3.8-1.7-5-1-1.2-3.2-2.4-4.8-2.6-1.7-0.2-4.7-0.2-6.8 0zm-192.3 13.6c-0.3 0.7 0.5 2.9 1.8 4.8 1.2 2 3.6 5.2 5.3 7.3 1.6 2 6.6 7.8 11 12.9 4.4 5.1 9.3 12 10.9 15.3 2.1 4.3 5.6 8.5 12.5 15.3 5.3 5.1 11.6 10.5 14.1 11.9 2.5 1.4 6.9 4 9.7 5.9 2.9 1.8 6.3 3.2 7.5 3.1 2-0.2 2.4-1 3-6.7 0.4-3.6 0.8-7.4 1-8.5 0.3-1.9-0.4-2.1-11.7-2.5-10.8-0.5-12.5-0.8-16.5-3.2-2.5-1.5-6.2-4.5-8.4-6.7-3.2-3.2-4-4.9-4.9-10.3-0.8-4.9-0.7-7.8 0.3-12.8 0.8-3.6 2.4-7.7 3.6-9 1.1-1.4 3.8-3.7 5.8-5 2.4-1.7 3.5-3.2 3.4-4.5-0.3-1.8-1.4-2.1-8.3-2.8-4.4-0.4-10.3-1.2-13-1.7-2.8-0.6-8.4-1.3-12.5-1.6-4.1-0.3-8.3-1-9.3-1.5-0.9-0.5-2.4-0.9-3.2-0.9-0.9 0-1.8 0.5-2.1 1.2zm297.6-0.9c-0.3 0.3-5.2 1.2-11 2.1-5.8 0.8-14.6 2.6-19.5 3.9-5.3 1.4-9.2 2.9-9.4 3.8-0.2 0.7 1.2 4.5 2.9 8.4 3.1 6.5 3.3 7.5 2.7 14.5-0.3 4.1-1.4 9.5-2.3 12-1 2.4-2.9 6-4.3 7.8-1.4 1.9-3.6 4.8-4.8 6.5-1.4 2-1.9 3.9-1.5 5.1 0.4 1 3.2 3.9 6.2 6.3 3 2.5 6.6 5.8 8 7.5 1.4 1.7 5 4.9 8 7.2 3 2.2 7.7 5.6 10.5 7.4 4.7 3.3 5.5 3.5 14 3.6 7.5 0 9.6-0.3 12-1.9 1.7-1.1 4.6-2.9 6.6-4 1.9-1.1 6.6-3.7 10.5-5.8 3.8-2 9.4-5.4 12.5-7.5 3.1-2 8-5.6 11-7.9 3-2.3 6.7-5.6 8.4-7.3 2.9-3.1 3-3.2 1-4.6-1.1-0.8-3.8-1.7-6-2-2.2-0.4-6-1.5-8.5-2.6-2.5-1.1-5.7-3.1-7.3-4.4-1.5-1.4-3.4-2.4-4.2-2.4-0.8 0-2 1.2-2.6 2.7-0.6 1.5-1.3 4.1-1.6 5.8-0.4 1.6-2.5 5.1-4.7 7.7-2.8 3.3-5.5 5.3-8.6 6.3-2.5 0.9-7.2 1.8-10.5 2.2-4.6 0.4-7.2 0.2-11-1.3-2.8-1-6.8-3.5-9-5.5-2.2-2-5-6-6.3-8.8-1.6-3.8-2-6.2-1.6-8.9 0.3-2.1 1.9-6.4 3.5-9.7 2.1-4.5 4.8-7.8 10.6-13 6.3-5.6 8.7-7.1 12.3-7.8 2.5-0.4 5.8-0.5 7.5-0.1 1.6 0.3 4.9 1.9 7.2 3.5 2.4 1.6 5 2.9 5.8 2.9 1 0 1.7-1.5 2-4.8 0.3-2.6 1-6.4 1.5-8.5 0.6-2.1 0.8-4.6 0.5-5.7-0.4-1.7-1.3-2-5.8-2.1-2.8 0-9.5-0.2-14.7-0.6-5.2-0.3-9.7-0.3-10 0zm46.9 4.5c-1.3 1-3 3.7-3.7 6-0.6 2.3-1 5.4-0.6 6.9 0.3 1.5 1.3 4.6 2.1 6.8 0.9 2.2 2.8 5.5 4.2 7.4 1.6 2.1 5 4.6 8.6 6.3l6 2.8c12.4-3.8 16.5-5.5 17.1-6.2 0.6-0.8 2.3-4.8 3.8-9.1 1.4-4.3 2.4-8.2 2.1-8.7-0.3-0.6-1.1-1-1.8-0.9-0.6 0-2 0-3 0-0.9-0.1-2.7-1.8-4-3.8-1.2-2-3.6-4.4-5.2-5.4-1.7-1-6.3-2.2-10.3-2.9-3.9-0.6-8.5-1-10.1-1-1.5 0-3.9 0.8-5.2 1.8zm-366.9 12.7c-2 3.2-3.4 7-3.5 8.8 0 2.5 1.2 4.7 5 9.3 2.7 3.3 7.7 8.4 11 11.5 3.3 3 8.5 7.7 11.5 10.4 3 2.7 12.5 11.8 21 20.1 8.5 8.3 16.8 15.8 18.5 16.7 1.6 0.9 4.8 3.2 7 5.1 3.7 3.3 4.4 3.6 10.5 3.5 3.6-0.1 7.6-0.5 9-0.8 1.6-0.5 2.6-1.5 2.7-2.9 0.2-1.8-1-3-6-5.9-3.4-2.1-8.7-5.6-11.7-7.8-3.1-2.2-13.4-12.2-23-22.1-9.7-9.9-21.1-22-25.6-27-4.4-4.9-9.1-10.5-10.4-12.4-1.3-2-4.2-5.5-6.4-7.8-2.3-2.4-4.6-4.3-5.2-4.3-0.5 0-2.6 2.6-4.4 5.6zm247-1.9c-0.8 0.3-1.3 1.3-1.2 2.2 0.2 1.1-1.2 2.2-4.5 3.5-2.7 1.1-5.3 2.3-5.8 2.8-0.6 0.5 1 3.2 4.4 7.1 3 3.4 5.5 7.1 5.5 8.2 0.1 1.2 1.2 2.5 2.8 3.3 1.6 0.7 3.5 2.4 4.3 3.8 0.8 1.3 2.1 2.5 2.7 2.5 0.7 0 3.3-1.7 5.7-3.8 2.4-2.1 5-5.2 5.8-7 0.7-1.8 1.3-5.2 1.3-7.5 0-2.3-0.9-6-1.9-8.2-1.1-2.2-2.6-4.6-3.3-5.2-0.7-0.6-4.2-1.4-7.8-1.7-3.6-0.3-7.2-0.3-8 0zm-136.3 6.4c0.5 1.9 0.8 8.3 0.8 14.2v10.8l7-0.5c-0.6-10.9-0.2-16.5 0.5-19.5 0.6-3.1 0.8-5.9 0.3-6.3-0.4-0.4-2.7-1.1-5.1-1.4l-4.2-0.7zm318.6 3.1c-0.6 0.8-2.2 3.8-3.7 6.8-1.4 3.1-3.8 7.8-5.4 10.6-1.5 2.8-4.3 7-6.3 9.4-1.9 2.4-5.9 6.2-9 8.5-3 2.2-6.1 4.6-7 5.3-0.8 0.7-3.9 3.2-6.8 5.5-2.9 2.4-7.2 5.7-9.5 7.5-2.3 1.8-8.4 6.4-13.7 10.1-5.2 3.7-11 7.4-12.9 8.2-2 0.8-5.2 2.7-7.3 4.2-2.1 1.5-4 2.7-4.3 2.7-0.2 0-3.9 2.4-8.1 5.3-4.2 2.9-7.8 5.8-8 6.5-0.2 0.7 0.8 3.3 2.1 5.7 2.3 4 2.9 4.5 6 4.5 2 0 4.8-0.5 6.3-1.1 1.5-0.6 4.5-1.9 6.7-2.9 2.2-0.9 5.8-2.2 8-2.9 2.2-0.7 7.9-3.3 12.5-5.8 4.7-2.5 9.9-5.5 11.5-6.8 1.7-1.2 6.2-4.3 10-7 3.9-2.6 9.5-6.5 12.5-8.5 3.1-2 9.6-8.1 14.5-13.6 7.5-8.1 10-11.8 14.7-21.4 4.5-9 5.8-12.8 6.3-18 0.5-5.1 0.3-7.2-1.2-10-1.2-2.4-2.6-3.5-4.3-3.8-1.5-0.1-3.1 0.3-3.6 1zm-346.9 1.4c-1.6 0.9-5.1 3.9-7.7 6.8-2.6 2.8-4.8 5.6-4.8 6.1 0 0.6 0.6 1.8 1.3 2.7 0.7 0.9 3.3 2.1 5.7 2.8 2.5 0.7 5.4 1.4 6.5 1.7 1.1 0.3 4.2-0.7 6.8-2.1 2.6-1.4 4.7-3 4.7-3.6 0-0.5-1-1.2-2.2-1.6-1.2-0.3-4.2-0.3-6.5 0-3.6 0.6-4.4 0.3-5.3-1.4-0.5-1.1-0.6-2-0.2-2.1 0.4-0.1 1.8-0.2 3.2-0.2 1.8-0.1 2.6-0.9 3.2-3.4 0.6-2.3 1.4-3.3 2.8-3.3q2 0 3 3c0.6 1.7 1.5 3 2 3 0.6 0 1-1.6 1.1-3.7 0-2.1-0.6-4.3-1.3-5-0.7-0.7-3.1-1.3-5.3-1.3-2.2 0.1-5.3 0.8-7 1.6zm54.3 1.1c-1.5 1.5-1.7 2.8-1.2 6.8 0.4 2.8 1.3 6.2 1.9 7.5 0.7 1.4 2.9 3.6 4.9 4.8 2 1.2 5.8 2.5 8.4 2.9l4.7 0.6c16.3-15.1 21-20 21-20.6 0-0.6-2.2-1.5-5-1.9-2.7-0.5-11.3-1.1-19-1.4-12.7-0.5-14.1-0.4-15.7 1.3zm57.7 6.6c-2 2.3-4.3 5.7-5.1 7.5-0.7 1.8-1.4 4.8-1.4 6.7 0 2 0.8 4.8 1.6 6.3 0.9 1.5 3.5 4 5.8 5.5 3.4 2.2 5.3 2.7 10.4 2.7 3.6 0 7.5-0.6 9.2-1.5 1.7-0.8 3.7-3 4.5-5 1.4-3.2 1.4-3.6-0.5-6.2-1.1-1.5-2-3.4-2-4.3 0.1-0.8-1.8-3.4-4.2-5.7-2.3-2.4-5.5-5.6-7-7.3-1.6-1.7-3.8-3-5.2-3-1.6 0-3.7 1.5-6.1 4.3zm125.7 6.5c-0.6 2.1-1.1 4.8-1.1 6-0.1 1.2 1.4 3.8 3.2 5.7 1.8 1.9 4 3.5 5 3.5 1 0 2.5-0.3 3.4-0.7 0.9-0.4 2.5-2.4 3.5-4.5 1-2.1 1.9-4.8 1.9-6 0-1.2-0.9-3.5-2-5-1.8-2.4-2.7-2.8-7.4-2.8-5.4 0-5.4 0.1-6.5 3.8zm-202.7 27.5c-1.6 1.2-3.3 2.6-3.7 3.2-0.4 0.6-0.7 2.3-0.7 3.8-0.1 2.1 0.4 2.7 1.9 2.7 1.1 0 2.3-0.7 2.6-1.7 0.3-1 0.9-2.4 1.4-3.3 0.4-0.8 1.5-1.6 2.4-1.7 0.9-0.1 1.7 0.3 1.7 1 0 0.7-0.7 1.8-1.5 2.5-0.9 0.7-1.3 1.7-1.1 2.2 0.3 0.6 1.3 1 2.3 1 1 0 3.2-1.1 5-2.5 1.8-1.3 3.3-3.2 3.3-4.2 0-1-0.8-2.5-1.8-3.5-1-0.9-3.3-1.7-5.3-1.7-2 0-4.7 0.9-6.5 2.2zm113.5 0.8c-1.9 1.6-7.2 4.5-11.7 6.5-4.5 1.9-9.8 3.4-11.8 3.4-1.9 0-6.4-0.6-10-1.5-3.5-0.8-8.9-2.8-12-4.5-3-1.6-5.9-2.7-6.5-2.5-0.5 0.3-1.9 2.3-3 4.5-1.1 2.2-2 4.7-2 5.5 0 0.9-2.2 8.4-5 16.8-3.1 9.2-5.3 17.8-5.6 21.7-0.4 4.2-0.1 8 0.8 10.5 1 3 2.4 4.6 5.3 6.2 3.2 1.8 6.5 2.4 16.4 3 6.8 0.5 12.5 1.2 12.7 1.6 0.3 0.4 2.1 0.7 4.2 0.7 2.1 0 4.3-0.4 4.8-1 0.7-0.8 2.1-0.8 4.9 0.1 3 0.8 5.2 0.9 8.8 0l4.7-1.1c-1.1-7.3-1.3-11.4-1.2-13.7 0.1-2.3 0.8-5.7 1.5-7.5 0.8-1.8 2.7-5 4.3-7.1 1.6-2.2 5.4-5.8 8.4-8.2 3.1-2.3 7.9-5.4 10.8-6.8 2.9-1.5 5.2-3.1 5.2-3.7 0-0.5-1.6-3.3-3.6-6.2-2.1-2.9-5.7-8.2-8.1-11.8-2.5-3.5-5-6.8-5.6-7.2-0.6-0.4-1.6-0.7-2.2-0.7-0.5 0-2.5 1.4-4.5 3zm20.6 46.5c-3.1 3.2-3.7 4.4-3.6 8.1 0 2.4 0.6 5.5 1.3 6.8 0.8 1.7 2.7 3 5.5 3.8 4.1 1.2 4.3 1.2 5.5-1.2 0.8-1.6 3.1-3.2 6.2-4.3 2.8-1.1 5.4-2.2 5.9-2.6 0.5-0.3 0.6-1.2 0.2-1.9-0.4-0.9-1.3-1-2.8-0.4-1.9 0.8-2.2 0.6-2-1.2 0.2-1.2-0.8-4-2-6.2-2-3.5-2.8-4-6.4-4.3-3.7-0.2-4.6 0.2-7.8 3.4zm23.4 32.5c-1.9 0.5-6.6 1.5-10.5 2.3-3.8 0.8-9.7 2.2-13 3.2-3.3 0.9-9.6 2.1-14 2.5-4.4 0.4-13.4 0.8-20 0.9-7 0-15.7-0.6-21-1.5-4.9-0.9-10.8-1.8-13-1.9-2.2-0.2-4.9-0.7-6-1.3-1.1-0.5-4.2-1.3-7-1.7-2.7-0.3-6.2-0.8-7.7-1.1-2.3-0.4-2.8-0.1-2.7 1.8 0 1.2 0.8 3.2 1.7 4.4 1 1.2 4 3.1 6.7 4.3 4.9 2.1 6.2 2.2 38.3 2.1 20 0 34-0.4 35.2-1.1 1.1-0.5 4.9-0.9 8.3-0.9 3.4 0 9.6-0.9 13.7-2 4.2-1.2 8.2-2.6 8.9-3.3 0.8-0.7 2.8-1.7 4.5-2.3 2.1-0.6 3.1-1.6 3.1-2.9 0-1-0.4-2-1-2.1-0.5-0.1-2.5 0.2-4.5 0.6zm409.1 120.6c-1.2 0.4-1.4 2.5-1.3 9.9 0.1 5.2 0.7 10.6 1.2 11.9 0.9 2.3 1.6 2.5 6.8 2.5 3.5 0 7.1-0.6 9.2-1.7 2.8-1.4 3.8-2.7 4.9-6.3 0.8-2.4 1.1-5.9 0.8-7.7-0.4-1.8-1.7-4.4-2.9-5.9-2-2.3-3.2-2.6-9.8-2.9-4.1-0.2-8.1-0.2-8.9 0.2zm-90 28.6c-1.8 1.2-4.2 4-5.3 6.2-1.2 2.4-2 6.1-2 9 0 2.8 0.7 6.5 1.6 8.3 0.9 1.8 3.1 4.4 4.9 5.7 1.8 1.4 4.6 2.8 6.2 3.2 1.9 0.4 4.4 0.1 6.4-0.8 1.9-0.7 4.4-2.7 5.7-4.4 1.2-1.6 2.8-4.3 3.4-6 0.7-1.7 0.9-5.1 0.6-8-0.4-3.2-1.6-6.3-3.3-8.6-1.5-2-4-4.4-5.5-5.3-1.5-0.8-4.2-1.5-6-1.5-1.8 0-4.8 1-6.7 2.2zm-308.8 1.8c-1.8 1.1-4.1 3.8-5.2 6.2-1.1 2.3-2 5.6-2.1 7.2 0 1.7 1 4.6 2.3 6.5 1.2 1.8 3.4 4.2 4.7 5.2 1.4 1.1 4.3 2.2 6.5 2.4 2.8 0.4 5.1 0 7.5-1.2 1.9-1 4.6-3.4 5.9-5.4 1.8-2.7 2.2-4.5 2-8.5-0.3-3.6-1.2-6.1-3.1-8.8-1.5-2-3.9-4.1-5.3-4.7-1.3-0.5-4.1-0.9-6.2-0.9-2.1 0-5.2 0.9-7 2zm-601.3 0.9c-1.3 0.4-3.6 1.4-5 2.3-1.3 0.9-3.5 3.6-4.9 5.9-1.9 3.4-2.3 5.4-2 9.5 0.3 3.2 1.3 6.3 2.5 8 1.2 1.6 4.4 4 7 5.3 4.6 2.3 5.3 2.3 9.4 1.2 2.5-0.7 5.6-2.3 6.9-3.5 1.2-1.2 3.2-3.7 4.4-5.7 1.1-1.9 2-5.2 2-7.5 0-2.2-0.9-5.9-2.1-8.2-1.6-3.1-3.3-4.8-6.4-6.2-2.3-1.1-5.4-2-6.8-2-1.3 0.1-3.6 0.5-5 0.9zm1284.3-0.3c-1.2 0.3-3.8 2.1-5.6 4.2-2.2 2.4-3.6 5.1-4 8.1-0.7 3.9-0.4 5.2 1.8 8.8 1.4 2.3 4 5.1 5.8 6.2 1.8 1.1 4.9 2 7 2 2.1 0 4.9-0.4 6.2-1 1.4-0.5 3.8-2.6 5.3-4.6 1.9-2.6 2.7-4.9 2.7-7.8 0-2.2-0.5-5.4-1.2-7.1-0.7-1.6-2.9-4.2-5-5.7-2.1-1.5-5.3-2.9-7.3-3.2-1.9-0.2-4.5-0.2-5.7 0.1z"/>
		<path id="Path 3" class="s1" d="m1646.8 815.1c-0.9 0.5-3.3 3.5-5.2 6.5-2.3 3.3-3.4 6.2-3.1 7.4 0.3 1.1 1.3 2 2.3 2 0.9 0.1 3.8-2.2 6.5-5 2.6-2.7 4.7-5.9 4.7-7 0-1.1-0.7-2.7-1.5-3.5-0.8-0.8-1.6-1.5-1.7-1.5-0.2 0-1.1 0.5-2 1.1zm7.7 13.6c-0.5 0.3-0.8 2.4-0.7 4.5 0.1 2.6 1.2 5.1 3.5 8 1.8 2.4 4 4.3 4.8 4.3 1 0 1.4-1.3 1.3-5 0-2.8-0.8-6.7-1.7-8.8-1.3-2.7-2.3-3.7-4-3.7-1.3 0-2.7 0.3-3.2 0.7zm-162.6 4.1c-1.9 0.2-7.6 1.1-12.5 1.8-4.9 0.7-12.1 1.6-15.9 1.9-3.8 0.4-8.2 1.3-9.7 2.1-1.6 0.8-3.7 1.4-4.8 1.4-1.2 0-2.6 1.2-3.5 3-0.8 1.6-1.4 4.5-1.2 6.2 0.2 3.1 0.4 3.3 3.7 3.2 1.9-0.1 6.7-0.9 10.5-1.8 3.8-1 10.4-2.4 14.5-3.2 4.1-0.8 9.4-1.9 11.8-2.5 3-0.6 7.4-0.4 15.5 0.7 6.7 1 13.5 1.4 17 1 5.2-0.5 5.7-0.8 5.5-2.9-0.2-1.6-2-3.1-6.3-5.4-3.3-1.8-7.6-3.7-9.5-4.2-1.9-0.6-5.3-1.2-7.5-1.4-2.2-0.3-5.6-0.2-7.6 0.1zm147.1 12.9c-2.8 2.6-4.3 4.9-4.6 7.3-0.3 1.9 0 4.9 0.7 6.5 0.7 1.6 1.2 4.6 1.1 6.5-0.1 1.9 0.3 5 0.8 6.7 0.6 1.8 1.9 3.8 3 4.3 1.4 0.7 2.5 0.6 3.6-0.3 0.9-0.6 2.8-3.7 4.4-6.7 1.5-3 4.6-7.3 6.8-9.5 2.3-2.2 4.1-4.9 4.2-6 0-1.1-1.7-3.7-3.7-5.7-2.1-2-5.5-4.4-7.5-5.3-2.1-0.8-4-1.5-4.3-1.5-0.3 0-2.3 1.7-4.5 3.7zm-125.5 17.3c-2.2 0.4-5.3 1.4-7 2.2-1.7 0.8-6.2 2-10 2.7-3.8 0.7-8.1 1-9.5 0.6-1.4-0.4-3.7-1.6-5.2-2.6-1.6-1.1-3.5-1.9-4.3-1.9-1.2 0-1.4 1-0.9 5.7 0.4 3.2 0.9 6.2 1.3 6.7 0.3 0.5 4.4 0.6 9.6 0.2 5-0.3 11.7-1 15.1-1.4 5-0.6 6.8-1.4 11.2-5 3.1-2.5 5.2-5 5.2-6.2 0-1.1-0.3-2-0.7-1.9-0.5 0.1-2.6 0.5-4.8 0.9zm-599 37.9c-3.3 0.4-8.5 2-11.5 3.6-3 1.5-6.3 3.5-7.3 4.4-1 0.9-1.8 2.6-1.7 3.8 0 2 0.5 2.3 3.8 2.3 2 0 5.4-0.5 7.5-1 3-0.8 5.3-0.5 12.5 1.5 4.8 1.4 11 3.5 13.7 4.7 2.8 1.1 6.6 2.5 8.5 3 1.9 0.5 6.9 1.5 11 2.2 4.1 0.8 10.2 2 13.5 2.7 5 1 6.5 1 9.3-0.2 1.8-0.8 3.3-1.9 3.2-2.4 0-0.5-0.7-3.5-1.5-6.5-0.9-3-2.4-6.5-3.5-7.8-1.1-1.2-3.7-2.6-5.7-3.2-2.1-0.5-9.4-2.3-16.3-3.9-6.9-1.6-16.3-3.2-21-3.5-4.7-0.2-11.2-0.1-14.5 0.3zm-144.1 11.3l-3.5 3.3c-1.1 20.4-0.9 24.5 0.4 29.5 0.9 3.6 1.8 8.1 2.1 10 0.3 1.9 1.1 4.1 1.8 4.8 0.8 0.7 2.1 0.9 3.2 0.5 1.1-0.5 3.5-3.2 5.5-6.2 2-3 4.9-8 6.5-11 1.5-3.1 3.5-8.1 4.2-11.1 1.3-4.9 1.3-6.1-0.2-10.5-0.9-2.8-3.3-6.7-5.3-8.8-2.9-3-4.3-3.7-7.4-3.7-2.8 0-4.6 0.8-7.3 3.2zm125 14c-0.4 1.3-0.4 3-0.2 3.8 0.3 0.8 2.7 2.1 5.4 2.8 2.7 0.7 6.9 1.7 9.4 2.1 2.5 0.5 7.7 1.6 11.5 2.5 3.9 1 8.4 1.6 10 1.4 2.7-0.3 3-0.7 3.1-3.8 0-1.9 0.2-4 0.3-4.5 0.2-0.5 0.3-1.6 0.2-2.3 0-0.6-1.4-1.9-3.1-2.7-2.3-1.2-6.8-1.5-19.5-1.5-16.2 0-16.5 0-17.1 2.2zm87.2 25.5c-0.2 0.5-1 3.5-1.7 6.8-1.1 5.4-1 6.9 1 14.5 1.2 4.7 2.2 10.1 2.3 12 0.1 1.9 0.1 7.5 0 12.5-0.1 5.9-0.7 9.7-1.6 11-1.3 1.9-1.6 1.9-5.6 0.5-3.1-1.1-4.6-1.2-5.8-0.4-0.9 0.6-1.8 2.6-2 4.5-0.1 1.9 0.2 4 0.8 4.6 0.6 0.8 3.2 1.3 6.3 1.2 2.8 0 6.3 0.1 7.7 0.3 2.1 0.3 2.9-0.5 5.3-5.2l2.9-5.5c-0.8-28.1-1.5-34.6-2.7-38.5-0.9-3-1.8-8.5-2.1-12.3-0.3-5.8-0.7-6.7-2.4-6.7-1 0-2.1 0.3-2.4 0.7zm-33.3 58.9c-1.3 0.2-2.3 1.1-2.3 1.9 0 0.8 0.7 1.7 1.5 2 0.8 0.3 2.7 0.5 4.3 0.5 1.5 0 3.4-0.4 4.2-0.9 0.9-0.6 1.2-1.5 0.8-2.5-0.5-1-1.9-1.5-3.5-1.5-1.6 0.1-3.8 0.3-5 0.5zm288.2 268.1c-0.5 0.3-0.8 2-0.7 3.7 0.1 1.7 0.7 3.9 1.4 4.9 0.9 1.3 2.3 1.7 4.3 1.5 2.5-0.2 3.1-0.8 3.3-3.3 0.2-1.7 0.1-4-0.2-5.3-0.5-1.7-1.3-2.2-3.9-2.2-1.9 0-3.7 0.3-4.2 0.7zm23 3.9c-0.9 0.8-1.6 2.9-1.6 4.5 0.1 1.6 0.8 3.6 1.6 4.4 0.8 0.8 2.1 1.5 2.8 1.5 0.7 0 1.8-0.6 2.5-1.3 0.7-0.6 1.2-2.7 1.2-4.5 0-1.7-0.7-3.9-1.5-4.7-0.8-0.8-1.9-1.5-2.4-1.5-0.5 0-1.7 0.7-2.6 1.6zm-40 520.1c-0.9 1-1.4 2.4-1.1 3 0.3 0.7 0.6 1.5 0.6 1.8 0 0.3 0.8 0.5 1.8 0.5 0.9-0.1 2.2-0.8 2.9-1.8 0.7-1.1 0.8-2.3 0.2-3.5-0.5-0.9-1.3-1.7-1.8-1.7-0.5 0-1.7 0.8-2.6 1.7zm-48.4 2.2c-0.6 1.2-0.8 2.8-0.3 3.7 0.4 0.9 1.6 2.1 2.7 2.6 1.5 0.7 2.4 0.6 3.5-0.6 1.2-1.2 1.3-2.2 0.5-4.4-0.6-1.6-1.9-2.8-3.2-3-1.3-0.2-2.5 0.4-3.2 1.7zm204 20.3c-0.6 0.7-1 2.9-0.9 4.8 0.3 3.2 0.6 3.5 3.3 3.5 2.9 0 3-0.2 3-4.5 0-3.8-0.3-4.5-2.1-4.8-1.1-0.2-2.6 0.3-3.3 1zm17.4 2c-1 1.2-1.7 3.2-1.6 4.3 0 1.1 1.1 3 2.3 4.3 1.9 2 2.7 2.2 4.6 1.3 1.2-0.6 2.2-1.7 2.2-2.4 0-0.6-0.8-3.1-1.8-5.5-0.9-2.3-2.2-4.3-2.9-4.2-0.7 0-1.9 1-2.8 2.2zm-134.7 5.4c-1 1.2-1.1 2.3-0.1 5.2 0.7 2 1.1 5.1 1 6.9-0.1 1.8 0.4 3.8 1.1 4.5 1.1 1.1 1.6 0.9 2.8-0.7 1.2-1.5 1.4-3.4 0.9-7.5-0.3-3-0.8-6.3-1.1-7.3-0.2-0.9-1.1-1.9-1.9-2.1-0.8-0.3-2 0.2-2.7 1zm-9.8 6c-0.5 0.8-0.8 2.1-0.5 2.9 0.3 0.8 1.3 1.4 2.3 1.2 0.9-0.1 1.8-1.1 2-2.2 0.2-1.1-0.3-2.3-1.2-2.7-0.9-0.4-2-0.1-2.6 0.8zm-100.4 3.1c-1.2 1.2-1.6 2.7-1.2 4.5 0.5 2.3 1.1 2.8 3.4 2.5 2.4-0.2 2.7-0.6 2.7-4.2 0-2.8-0.5-4.1-1.6-4.3-0.8-0.1-2.3 0.5-3.3 1.5zm53 5.8c-0.9 0.8-1.5 2.3-1.3 3.2 0.1 1.3 1.1 1.8 3.1 1.8 1.6 0 3.3-0.7 3.9-1.5 0.5-0.8 0.7-2.3 0.4-3.3-0.4-0.9-1.6-1.7-2.6-1.7-1.1 0-2.7 0.7-3.5 1.5zm7.4 14.7c-1.2 1.2-2.1 2.7-2.1 3.2 0.1 0.6 0.6 1.7 1.3 2.4 0.7 0.7 1.9 1.2 2.6 1.2 0.6 0 2.1-0.9 3.2-2 1.3-1.3 1.8-2.6 1.3-3.8-0.3-0.9-1.1-2-1.7-2.4-0.6-0.4-1.4-0.8-1.8-0.8-0.4 0-1.7 1-2.8 2.2zm-14 33.1c-2.5 0.7-6.2 2.2-8.2 3.5-2.1 1.2-4.5 3.7-5.4 5.4-1 1.8-2.5 5.8-3.6 8.8-1 3-1.8 6.5-1.8 7.7 0 1.3 1.2 4.7 2.7 7.5 1.5 2.9 4.3 7.3 6.3 9.8 2 2.5 5.4 5.2 7.6 6.1 2.1 0.9 6 1.9 8.7 2.3 3.8 0.5 5.6 0.1 9.5-1.8 2.6-1.3 5.8-3.6 7.2-5.2 1.4-1.6 3.1-4.5 3.8-6.4 0.8-1.9 1.9-4.4 2.5-5.5 0.6-1.1 1.6-3.1 2.4-4.5 0.7-1.4 1.3-4 1.3-5.8 0-1.7-0.9-5.6-1.9-8.5-1.1-2.8-3.4-6.7-5.3-8.6-1.8-1.8-4.9-4-6.8-4.7-1.9-0.8-6-1.4-9-1.4-3 0.1-7.5 0.7-10 1.3z"/>
		<path id="Path 4" class="s0" d="m1193 1915c-1.1 1.1-2 2.7-2 3.5 0 0.8 0.3 2.2 0.8 3.1 0.4 0.9 1.9 2.3 3.5 3 1.7 0.9 2.9 1 3.2 0.4 0.3-0.5 0-1.9-0.5-3-0.5-1.1-1-2.5-1-3 0-0.5 1.7-1.5 3.8-2.1 2-0.6 4.3-0.8 5-0.5 0.9 0.5 0.9 1.2-0.3 3.1-0.8 1.4-1.3 3.2-1 4 0.3 0.8 1.3 1.5 2.3 1.5 0.9 0 2.5-1.3 3.5-3 0.9-1.6 1.7-3.9 1.7-5 0-1.1-0.9-2.5-2-3-1.1-0.5-4.9-1-8.5-1-5.2 0-6.9 0.4-8.5 2z"/>
	</g>
</svg>